<svg width="13" height="11" viewBox="0 0 13 11" fill="none" xmlns="http://www.w3.org/2000/svg">
<path d="M12.9995 5.82437C12.9995 6.02562 13.0022 6.22644 12.9991 6.42769C12.9929 6.78365 12.79 7.07152 12.4444 7.17452C12.2676 7.22752 12.177 7.32233 12.1288 7.49126C11.872 8.39409 11.3956 9.17539 10.7503 9.86619C10.6526 9.97048 10.611 10.1239 10.5403 10.2532C10.4833 10.3575 10.4422 10.4807 10.3578 10.5579C10.2088 10.6945 10.0378 10.8108 9.86541 10.9207C9.6537 11.056 9.43139 11.0142 9.30056 10.8319C9.17504 10.6565 9.21172 10.4143 9.40973 10.2842C9.66917 10.1144 9.94364 9.96703 10.2102 9.80758C10.2658 9.7744 10.3184 9.73303 10.3649 9.68821C10.9903 9.07799 11.4331 8.35918 11.7049 7.53909C11.7071 7.5322 11.7098 7.5253 11.7116 7.51841C11.7452 7.4055 11.7885 7.27967 11.6272 7.23356C11.4795 7.19132 11.4543 7.31673 11.4053 7.41498C11.1777 7.87135 10.9938 8.35789 10.703 8.77245C9.30056 10.7729 6.58061 11.4779 4.33357 10.4449C4.11391 10.3441 3.91325 10.3148 3.67767 10.3713C3.14199 10.4988 2.60233 10.6104 2.06312 10.7216C1.69981 10.7966 1.47263 10.5755 1.54953 10.2213C1.67152 9.6602 1.81119 9.10256 1.92257 8.53974C1.94953 8.4027 1.91815 8.24326 1.87395 8.10665C1.80102 7.88169 1.68876 7.66967 1.60655 7.4473C1.54865 7.28958 1.45053 7.21977 1.27816 7.21977C1.05849 7.21977 0.833523 7.22838 0.620046 7.18701C0.24613 7.11462 0.0109957 6.81813 0.00480798 6.44752C-0.00182175 6.03122 -0.00137976 5.6145 0.00480798 5.19821C0.00966977 4.85561 0.215191 4.57981 0.558169 4.47423C0.732751 4.42079 0.815844 4.3234 0.871976 4.15533C1.65119 1.81746 3.2905 0.428532 5.77753 0.058783C8.50102 -0.345873 11.2391 1.37962 12.0718 3.97304C12.1544 4.23074 12.2375 4.43113 12.546 4.52292C12.8408 4.6104 12.9836 4.87285 12.9964 5.17839C13.0057 5.39343 12.9982 5.60933 12.9982 5.82437H12.9991H12.9995ZM6.54967 10.5316C6.68845 10.5234 6.88867 10.5247 7.08491 10.4984C9.77127 10.1368 11.567 7.82438 11.1971 5.20726C10.7675 2.16394 7.29529 0.366907 4.45203 1.71662C2.05339 2.85517 1.0775 5.57356 2.22974 7.9222C2.34687 8.16138 2.3725 8.39409 2.30974 8.65093C2.19041 9.13876 2.08698 9.63046 1.9787 10.1204C1.93317 10.326 1.95748 10.3497 2.17096 10.3045C2.67393 10.1984 3.17735 10.0959 3.67767 9.97909C3.94993 9.91531 4.19523 9.94936 4.4454 10.0696C5.08892 10.3786 5.77355 10.526 6.55011 10.5311L6.54967 10.5316ZM6.51431 0.398366C4.56517 0.373802 2.65758 1.46193 1.72854 3.14563C1.55528 3.45979 1.42931 3.79937 1.29053 4.13076C1.24324 4.2441 1.24545 4.38502 1.39617 4.40614C1.46688 4.41605 1.56854 4.31995 1.63086 4.25057C1.6808 4.19497 1.69274 4.10663 1.72235 4.03337C2.49405 2.13076 4.39147 0.878868 6.48868 0.887056C8.64731 0.895244 10.5328 2.14282 11.3001 4.07C11.3346 4.15662 11.3514 4.25617 11.407 4.32684C11.4468 4.37726 11.5485 4.42467 11.6028 4.40915C11.659 4.39321 11.7111 4.30357 11.7279 4.23721C11.7421 4.18205 11.7063 4.11266 11.6855 4.0519C10.9518 1.87952 8.89747 0.428532 6.51387 0.398366H6.51431ZM0.397729 5.81489H0.396845C0.396845 6.01528 0.391984 6.21567 0.398171 6.41606C0.405685 6.66083 0.557285 6.81554 0.807888 6.83579C0.917058 6.84484 1.02844 6.84312 1.13805 6.83709C1.34799 6.82545 1.40633 6.73668 1.39838 6.52724C1.38379 6.14198 1.36567 5.75499 1.38512 5.37059C1.41384 4.79786 1.39484 4.76727 0.801701 4.81295C0.563473 4.83105 0.407895 4.98015 0.399497 5.21373C0.392426 5.41368 0.398171 5.6145 0.398171 5.81489H0.397729ZM12.6075 5.81661C12.6075 5.69509 12.6075 5.57313 12.6075 5.45161C12.6061 4.89871 12.5124 4.80864 11.9401 4.81252C11.918 4.81252 11.8959 4.81252 11.8742 4.81295C11.6355 4.81984 11.571 4.90215 11.5838 5.13572C11.6055 5.52745 11.6298 5.92047 11.6227 6.3122C11.613 6.8345 11.6585 6.88751 12.196 6.83709C12.4497 6.81295 12.5982 6.66686 12.6061 6.41821C12.6128 6.21782 12.6075 6.01743 12.6079 5.81705L12.6075 5.81661Z" fill="#0179FD"/>
<path d="M9.46177 5.84851C9.45603 6.26006 9.11968 6.58327 8.69891 6.58241C8.27329 6.58112 7.92058 6.23464 7.92987 5.8261C7.93871 5.42533 8.29229 5.08661 8.70112 5.08704C9.12145 5.08747 9.46752 5.43438 9.46222 5.84851H9.46177Z" fill="#0179FD"/>
<path d="M3.54004 5.82999C3.54137 5.42447 3.88169 5.09092 4.2976 5.08833C4.70687 5.08575 5.07062 5.43223 5.07018 5.82352C5.06974 6.25619 4.72588 6.58715 4.28213 6.58155C3.86357 6.57638 3.53872 6.24757 3.54004 5.82999Z" fill="#0179FD"/>
<path d="M7.26186 5.84846C7.25789 6.26001 6.92286 6.58193 6.49989 6.58064C6.06586 6.57934 5.73261 6.24967 5.73835 5.82648C5.7441 5.41881 6.0884 5.08483 6.50033 5.08742C6.92684 5.09043 7.2654 5.42872 7.26142 5.84803L7.26186 5.84846Z" fill="#0179FD"/>
</svg>
