<svg width="10" height="10" viewBox="0 0 10 10" fill="none" xmlns="http://www.w3.org/2000/svg">
<path d="M0.714286 0.714286H6.42857V2.14286H7.14286V0.714286C7.14286 0.524845 7.0676 0.343164 6.93365 0.209209C6.79969 0.0752549 6.61801 0 6.42857 0H0.714286C0.524845 0 0.343164 0.0752549 0.209209 0.209209C0.0752549 0.343164 0 0.524845 0 0.714286V6.42857C0 6.61801 0.0752549 6.79969 0.209209 6.93365C0.343164 7.0676 0.524845 7.14286 0.714286 7.14286H2.14286V6.42857H0.714286V0.714286Z" fill="#0179FD"/>
<path d="M9.28575 2.85712H3.57146C3.38202 2.85712 3.20034 2.93237 3.06639 3.06633C2.93243 3.20028 2.85718 3.38196 2.85718 3.5714V9.28569C2.85718 9.47513 2.93243 9.65681 3.06639 9.79076C3.20034 9.92472 3.38202 9.99997 3.57146 9.99997H9.28575C9.47519 9.99997 9.65687 9.92472 9.79083 9.79076C9.92478 9.65681 10 9.47513 10 9.28569V3.5714C10 3.38196 9.92478 3.20028 9.79083 3.06633C9.65687 2.93237 9.47519 2.85712 9.28575 2.85712ZM9.28575 9.28569H3.57146V3.5714H9.28575V9.28569Z" fill="#0179FD"/>
<path d="M6.07136 8.57142H6.78564V6.78571H8.57136V6.07142H6.78564V4.28571H6.07136V6.07142H4.28564V6.78571H6.07136V8.57142Z" fill="#0179FD"/>
</svg>
