<svg width="11" height="11" viewBox="0 0 11 11" fill="none" xmlns="http://www.w3.org/2000/svg">
<path d="M3.74805 0.226074H7.25195C7.33278 0.226074 7.40269 0.244681 7.46582 0.283691L7.52734 0.32959C7.6057 0.399288 7.63184 0.465913 7.63184 0.537598V0.763184H10.6074C10.6387 0.763209 10.6637 0.767372 10.6846 0.774902L10.7363 0.806152C10.7504 0.81869 10.7606 0.830208 10.7666 0.843262L10.7744 0.888184C10.7745 0.904313 10.7732 0.917852 10.7676 0.930176L10.7383 0.966309C10.7075 0.99314 10.6686 1.0102 10.6074 1.01025H9.98926V9.87354C9.98926 10.0835 9.91821 10.2673 9.76367 10.4312L9.69141 10.5005C9.4859 10.6825 9.24142 10.7745 8.94531 10.7749H2.05566C1.79563 10.7749 1.57575 10.7045 1.3877 10.5649L1.30859 10.5005C1.10434 10.3187 1.0112 10.1136 1.01074 9.87451V1.01025H0.392578C0.361267 1.01023 0.336323 1.00511 0.31543 0.997559L0.263672 0.966309C0.249578 0.953709 0.23936 0.942328 0.233398 0.929199L0.225586 0.884277C0.225517 0.868146 0.226782 0.854617 0.232422 0.842285L0.261719 0.807129C0.29255 0.780136 0.331209 0.763236 0.392578 0.763184H3.36816V0.537598C3.36816 0.48372 3.38318 0.432939 3.42383 0.381348L3.47266 0.32959C3.55156 0.259541 3.64029 0.226074 3.74805 0.226074ZM1.34668 9.87354C1.34668 10.0606 1.41711 10.2263 1.55762 10.3511C1.6962 10.4741 1.86892 10.5278 2.05566 10.5278H8.94531C9.0851 10.5278 9.21659 10.4973 9.33203 10.4302L9.44238 10.3511C9.58289 10.2263 9.65332 10.0606 9.65332 9.87354V1.01025H1.34668V9.87354ZM4.16895 2.85498C4.23236 2.85526 4.27181 2.8735 4.30176 2.8999C4.32922 2.92425 4.33789 2.94588 4.33789 2.979V8.56006C4.33798 8.57609 4.33572 8.58954 4.33008 8.60205L4.30176 8.63916C4.27207 8.66551 4.23347 8.68305 4.1709 8.68311C4.13998 8.68311 4.11479 8.67798 4.09375 8.67041L4.04004 8.63916V8.63818L4.01074 8.60205C4.00505 8.58946 4.00293 8.57566 4.00293 8.55908V2.979C4.00293 2.94667 4.01209 2.92399 4.04102 2.89795C4.05546 2.88498 4.07195 2.87413 4.09277 2.8667L4.16895 2.85498ZM6.66211 2.97803C6.66202 2.96201 6.66429 2.94855 6.66992 2.93604L6.69824 2.89893C6.72793 2.87257 6.76653 2.85504 6.8291 2.85498C6.86002 2.85498 6.88521 2.86011 6.90625 2.86768L6.95996 2.89893V2.8999C6.98771 2.92438 6.99707 2.94574 6.99707 2.979V8.55908C6.99707 8.57549 6.99494 8.58932 6.98926 8.60205L6.95996 8.63916C6.931 8.66505 6.89286 8.68213 6.83008 8.68213C6.79867 8.6819 6.77323 8.67811 6.75195 8.67041L6.69824 8.63818C6.67077 8.61384 6.66211 8.5922 6.66211 8.55908V2.97803Z" fill="#0179FD" stroke="#0179FD" stroke-width="0.450413"/>
</svg>
