<svg width="12" height="9" viewBox="0 0 12 9" fill="none" xmlns="http://www.w3.org/2000/svg">
<path d="M0 3.70445C0.0315625 3.63907 0.055625 3.57278 0.0896875 3.50771C0.604062 2.53337 1.27969 1.56993 1.84 0.617077C1.98188 0.507808 2.12625 0.4618 2.30875 0.480869C2.44937 0.495398 3.23438 0.934895 3.37313 1.03902C3.48469 1.12286 3.54844 1.22002 3.60156 1.34473C4.055 1.34715 4.51094 1.31567 4.95625 1.41223C5.25313 1.16615 5.47031 0.890098 5.89781 0.846814L8.39969 0.841063C8.47375 0.706066 8.53344 0.617379 8.66438 0.529904C8.81656 0.428202 9.54688 0.0192763 9.69156 0.00414216C9.87938 -0.0155323 10.0684 0.0389508 10.195 0.174856C10.2616 0.246289 10.5606 0.73694 10.5834 0.820783C10.6213 0.96032 10.5213 1.09138 10.3716 1.09562C10.2219 1.09986 10.1825 1.02903 10.1066 0.918853C10.0416 0.824718 9.90844 0.52718 9.84656 0.472697C9.78937 0.422451 9.68969 0.488436 9.63281 0.514467C9.54375 0.555329 8.89062 0.918853 8.87062 0.957596C8.85781 0.982113 8.85469 1.00542 8.86312 1.03175L10.5366 3.83945C10.57 3.87365 10.6109 3.89484 10.6569 3.86972C10.7812 3.76892 11.4763 3.45897 11.5206 3.36333C11.5828 3.22954 11.0969 2.79247 11.1978 2.55274C11.255 2.41683 11.4169 2.38626 11.5397 2.45951C11.6166 2.50552 11.8538 2.92444 11.9103 3.03128C11.945 3.09636 11.9681 3.16265 12 3.22803V3.43234C11.9375 3.63756 11.8444 3.71595 11.67 3.82795C11.3363 4.04194 10.9009 4.29226 10.5103 4.36188L9.56406 5.28567C9.55625 5.32774 10.0534 5.76633 10.1241 5.85078C10.6841 6.5179 10.0694 7.41233 9.23469 7.17805C9.11906 7.73015 8.44938 8.0177 7.95656 7.70079C7.74281 8.23442 7.15563 8.42723 6.64563 8.13211C6.46688 8.45144 6.02812 8.95148 5.63656 8.99415C5.10687 9.05197 4.66938 8.69873 4.66125 8.17933C4.17375 8.15511 3.80719 7.81944 3.79656 7.33726C3.28875 7.33393 2.89156 6.92531 2.95281 6.42921C2.59312 6.42649 2.23156 6.13924 2.16687 5.79448C2.14687 5.68794 2.17875 5.50481 2.14406 5.43066C2.12625 5.39252 1.57375 4.85949 1.53625 4.83891C1.46562 4.80017 1.40219 4.8268 1.33 4.81167C1.12906 4.7696 0.25375 4.30316 0.130938 4.15696C0.065625 4.07917 0.0403125 3.99805 0 3.90937V3.70506L0 3.70445ZM0.498437 3.88031C0.67 3.92844 1.27313 4.364 1.39531 4.36249C1.41438 4.36249 1.42969 4.35522 1.44313 4.34221L3.14156 1.46943L3.11937 1.42131C2.96625 1.35805 2.32781 0.923998 2.21594 0.934289C2.19063 0.936711 2.17125 0.949726 2.15469 0.967282L0.473125 3.7892L0.498437 3.88031ZM7.52344 3.29613L9.2225 4.97512L10.1219 4.09673L8.46906 1.30144L5.9875 1.29721C5.82688 1.30568 5.68719 1.38226 5.56594 1.47912C5.34531 1.65498 4.77219 2.19769 4.605 2.40987C4.31719 2.77491 4.76656 3.19503 5.13344 2.92171C5.42188 2.7065 5.6875 2.33329 5.97781 2.10507C6.11719 2.02456 6.20687 2.07208 6.31719 2.16016C6.61719 2.39958 6.88469 2.751 7.18375 2.9998C7.35313 2.87964 7.50969 2.70681 7.56344 2.50613C7.60437 2.35357 7.55344 2.15865 7.72813 2.07541C7.85688 2.01396 8.02687 2.09205 8.0575 2.22221C8.135 2.55062 7.83594 3.13904 7.52344 3.29613ZM4.54688 1.79754H3.49219L1.88594 4.5447L2.40219 5.02173C2.54313 4.9397 2.62312 4.79896 2.7675 4.71632C3.31125 4.40456 4.01875 4.77565 4.03125 5.38435C4.54688 5.33017 4.965 5.73213 4.96906 6.22399C5.42375 6.18676 5.85125 6.59992 5.81281 7.04124C6.32687 7.00824 6.53094 7.46197 6.86938 7.70926C7.23594 7.97683 7.64 7.68202 7.47281 7.28369L5.36594 5.21545C5.25531 4.96331 5.50063 4.76233 5.73063 4.93032L8.15563 7.28066C8.48719 7.55459 8.94812 7.19016 8.72344 6.82149L6.64531 4.79351C6.49969 4.56892 6.74344 4.32283 6.9725 4.4766L9.32063 6.71979C9.75313 6.92682 10.0628 6.40046 9.72719 6.09898L6.12563 2.61661C5.76438 2.85573 5.47375 3.40994 5.00375 3.45474C4.4175 3.51073 3.95563 3.06276 4.05719 2.4922C4.11906 2.14502 4.32844 2.09781 4.51188 1.86595C4.53 1.84295 4.55719 1.8372 4.54688 1.79754ZM3.0875 5.07167C2.97031 5.09498 2.64594 5.41461 2.62687 5.53327C2.58156 5.81174 2.79031 6.01605 3.07687 5.96913C3.21562 5.94643 3.53969 5.64193 3.56125 5.50784C3.60875 5.21363 3.38781 5.01205 3.08781 5.07167H3.0875ZM4.025 5.84352C3.89094 5.86773 3.455 6.27817 3.42688 6.39925C3.34969 6.73008 3.6825 7.0149 3.98344 6.82482C4.03844 6.79001 4.39187 6.44889 4.43 6.3947C4.6225 6.12229 4.37156 5.78116 4.025 5.84352ZM4.98063 6.66803C4.89375 6.66803 4.81563 6.69769 4.74625 6.74642C4.68688 6.78819 4.33281 7.13356 4.3075 7.1841C4.14125 7.51433 4.51969 7.85455 4.85938 7.65054C4.93344 7.60605 5.30219 7.24071 5.32562 7.17139C5.40969 6.92259 5.26031 6.66773 4.98031 6.66773L4.98063 6.66803ZM5.23469 8.44115C5.36781 8.57857 5.59312 8.57221 5.7425 8.46113C5.80969 8.41118 6.13656 8.09367 6.16844 8.03374C6.32937 7.73226 6.03906 7.41838 5.71219 7.52372C5.57656 7.5676 5.17906 7.95232 5.14375 8.08519C5.1125 8.20294 5.14844 8.35246 5.23469 8.44115Z" fill="#0179FD"/>
<path d="M10.8665 1.5322C11.1443 1.51586 11.2065 1.93598 10.9321 1.97775C10.5668 2.03345 10.564 1.55006 10.8665 1.5322Z" fill="#0179FD"/>
</svg>
