<svg width="11" height="11" viewBox="0 0 11 11" fill="none" xmlns="http://www.w3.org/2000/svg">
<path d="M3.19377 8.75232H6.43733L8.37579 11V8.75232H9.20393C10.1919 8.75232 11 7.81454 11 6.6679V3.70753C11 2.5609 10.1919 1.62311 9.20393 1.62311H3.19377C2.20576 1.62311 1.39771 2.5609 1.39771 3.70753V6.6679C1.39771 7.81454 2.20576 8.75232 3.19377 8.75232Z" fill="#99C9FE"/>
<path d="M7.32926 10.3582L5.24492 7.94129H2.14549C0.962675 7.94129 0 6.82406 0 5.45134V2.48995C0 1.11723 0.962675 0 2.14549 0H8.15565C9.33847 0 10.3011 1.11723 10.3011 2.48995V5.45032C10.3011 6.82304 9.33847 7.94028 8.15565 7.94028H7.32751V7.12922H8.15565C8.95322 7.12922 9.60229 6.37594 9.60229 5.45032V2.48995C9.60229 1.56433 8.95322 0.81106 8.15565 0.81106H2.14549C1.34792 0.81106 0.698856 1.56433 0.698856 2.48995V5.45032C0.698856 6.37594 1.34792 7.12922 2.14549 7.12922H5.53407L7.33537 9.2177L7.32926 10.3572V10.3582Z" fill="#0179FD"/>
</svg>
