<svg width="11" height="11" viewBox="0 0 11 11" fill="none" xmlns="http://www.w3.org/2000/svg">
<path fill-rule="evenodd" clip-rule="evenodd" d="M10.1456 8.49011C9.30507 9.81563 7.91693 10.757 6.30169 10.9926L6.28471 10.9947C5.47709 11.0573 5.25528 10.6041 5.31365 10.1319L5.3232 10.0693C5.33806 9.98543 5.36141 9.90159 5.39113 9.82094L5.41447 9.76044L5.42721 9.73073L5.45374 9.67236C5.45798 9.66281 5.46329 9.65326 5.4686 9.64371L5.49831 9.58852C5.50893 9.57048 5.51954 9.55244 5.53015 9.53546L5.56411 9.48452C5.56942 9.47603 5.57579 9.4686 5.58109 9.46011L5.61717 9.41341C5.62354 9.40598 5.62991 9.39855 5.63522 9.39112L5.67342 9.34973C5.69252 9.32957 5.71269 9.31047 5.73179 9.29349C6.17222 8.91143 7.07641 8.8191 7.9424 8.98148C8.2767 9.04303 8.70227 8.97405 9.096 8.86686L9.2191 8.83184C9.25943 8.82016 9.29976 8.80743 9.33903 8.79575L9.4547 8.75861L9.56508 8.72041L9.67014 8.6822L9.76884 8.64506L9.86011 8.61003L9.94289 8.57713L10.0787 8.51983L10.1466 8.49011H10.1456ZM1.29465 6.24129C0.581478 7.0712 1.01235 8.5835 1.45171 9.19797C1.48037 9.2383 1.49947 9.27969 1.51008 9.3232C0.576171 8.33304 0.00415039 6.99691 0.00415039 5.52494C0.00415039 5.39334 0.00839544 5.26387 0.0179468 5.13546L0.0200693 5.12378C0.106032 4.64515 0.510373 4.40531 0.828752 4.31192C1.56739 4.09223 2.22644 5.15774 1.29465 6.24235V6.24129ZM5.50362 0C6.57443 0 7.57308 0.307766 8.41891 0.83946C8.51867 0.914809 8.62904 0.992282 8.75002 1.07188L8.82325 1.11963C8.97926 1.23849 9.12783 1.36479 9.27004 1.49957C10.0724 2.37405 10.5648 4.04872 9.47168 4.87332C8.49426 5.60984 7.77685 5.48143 7.28654 5.12803L7.23029 5.08558L7.17617 5.041C7.16768 5.03357 7.15813 5.02615 7.14964 5.01872L7.09764 4.97202C7.08915 4.96459 7.08066 4.9561 7.07217 4.94867L7.02335 4.89986L7 4.87545L6.95437 4.82557L6.91086 4.77569L6.86947 4.72475L6.8302 4.67381L6.79305 4.62287L6.74105 4.54752L6.6933 4.47429L6.64978 4.40318L6.62325 4.35755L6.59884 4.31298L6.56488 4.25036L6.54472 4.2111L6.52562 4.17183L6.48847 4.09329L6.463 4.03493L6.43965 3.97974L6.35369 3.74308L6.3123 3.63695L6.28046 3.55842L6.24544 3.47564L6.20618 3.38862C6.19981 3.37376 6.19238 3.3589 6.18495 3.34298L6.14038 3.25065C6.1096 3.18804 6.07564 3.1233 6.03956 3.0575L5.98331 2.95774C5.72967 2.52475 5.3561 2.06628 4.82653 1.80627C4.19402 1.49744 3.46918 1.49108 2.83348 1.5919L2.72205 1.611L2.61274 1.63222L2.50555 1.65451L2.40155 1.67892L2.29966 1.70439L2.20097 1.73092L2.10545 1.75851L2.01312 1.78611L1.92504 1.8137L1.79981 1.85509L1.68413 1.89648L1.578 1.93575L1.45384 1.98456L1.32967 2.03763L1.20019 2.09706L1.1864 2.10449C1.50265 1.74472 1.81785 1.43377 2.1288 1.16421C3.06059 0.434057 4.23223 0 5.50362 0Z" fill="#99C9FE"/>
<path fill-rule="evenodd" clip-rule="evenodd" d="M1.42952 7.02767C1.94105 7.26963 2.47168 7.2898 2.99701 7.27494L3.27506 7.26433L3.45972 7.2569C4.07207 7.23249 4.6685 7.23355 5.20762 7.56254C6.33893 8.25237 6.63396 9.25844 6.14153 10.3048C5.82952 10.9692 5.02296 11.0138 4.32253 10.8928L4.21852 10.8737L4.11664 10.8525C4.09966 10.8482 4.08268 10.845 4.06676 10.8408L3.96807 10.8164L3.87255 10.7909L3.78128 10.7644L3.69426 10.7378L3.61148 10.7103L3.53401 10.6827L3.46184 10.6561L3.39498 10.6296L3.26869 10.5765C1.3425 9.71585 0 7.77798 0 5.52492C0 5.4103 0.00318379 5.29568 0.0106126 5.18213L0.0350217 5.27658L0.0520019 5.33389L0.0721659 5.39757L0.0955137 5.46761L0.123107 5.5419C0.128413 5.55463 0.132658 5.56737 0.137964 5.58116L0.170863 5.66182C0.358707 6.10331 0.729088 6.69337 1.43164 7.02661L1.42952 7.02767Z" fill="#0179FD"/>
<path fill-rule="evenodd" clip-rule="evenodd" d="M5.50045 0C5.62462 0 5.74773 0.00424505 5.86977 0.0127352L5.76258 0.0488181L5.64054 0.0880849C5.61931 0.0944525 5.59703 0.101881 5.57368 0.10931C4.33625 0.497733 3.85443 1.42846 3.59336 2.3698L3.56152 2.48972L3.53181 2.60965L3.49042 2.789L3.45221 2.96729L3.41613 3.1424L3.32805 3.59132L3.29515 3.75051L3.27286 3.85345L3.24951 3.95321C3.24527 3.96913 3.24102 3.98611 3.23678 4.00203L3.21131 4.09648L3.18477 4.18775C3.13914 4.33632 3.08608 4.46792 3.02028 4.57829C2.24025 5.8932 -0.0244874 5.6629 0.402141 3.63907C0.441407 3.45017 0.494471 3.26975 0.557085 3.09889C1.45173 1.26397 3.32911 0 5.50045 0ZM7.33962 3.63695L7.37889 3.5754C7.39269 3.55523 7.40754 3.53401 7.4224 3.51384L7.4691 3.45229C7.87768 2.92484 8.64604 2.39846 9.81131 2.78688C10.3303 2.9588 10.6221 3.4905 10.7855 4.01582L10.8174 4.12407C10.8227 4.14211 10.8269 4.16015 10.8322 4.1782L10.8588 4.28538C10.8673 4.3204 10.8747 4.35543 10.8821 4.39045L10.8959 4.45519C10.9638 4.80116 10.9989 5.1588 10.9989 5.52494C10.9989 7.63473 9.82192 9.46753 8.09206 10.3983C8.10904 10.3664 8.12814 10.3335 8.14724 10.2996L8.17802 10.2465C8.732 9.30304 8.61208 8.65461 8.28203 8.11867L8.23427 8.04438C8.22578 8.03164 8.21835 8.01997 8.20986 8.0083L8.15892 7.93613L8.10585 7.86503L8.05067 7.79498L7.99442 7.726L7.93711 7.65808L7.84903 7.55726L7.61131 7.293C7.33326 6.98418 7.07749 6.67959 6.97773 6.32725C6.66678 5.22779 6.79626 4.56343 7.23244 3.80888L7.30036 3.69532C7.31203 3.67622 7.3237 3.65711 7.33644 3.63801L7.33962 3.63695Z" fill="#0179FD"/>
</svg>
