<svg version="1.1" id="Layer_1" xmlns="http://www.w3.org/2000/svg" xmlns:xlink="http://www.w3.org/1999/xlink" x="0px" y="0px" width="340px" height="100px" viewBox="40 5 280 70" enable-background="new 0 0 368.64 107.04" xml:space="preserve"> <g> <path fill-rule="evenodd" clip-rule="evenodd" fill="#007FFF" d="M95.144,37.491V11.184h5.371v26.307H95.144L95.144,37.491z
		 M123.071,37.491h-5.074v-9.719c0-2.056-0.111-3.385-0.327-3.985c-0.224-0.606-0.575-1.071-1.068-1.409
		c-0.495-0.336-1.087-0.501-1.779-0.501c-0.889,0-1.686,0.238-2.389,0.716c-0.71,0.479-1.192,1.116-1.452,1.898
		c-0.264,0.79-0.394,2.247-0.394,4.379v8.622h-5.077V18.422h4.706v2.798c1.687-2.137,3.803-3.203,6.367-3.203
		c1.124,0,2.155,0.203,3.088,0.601c0.938,0.403,1.642,0.913,2.117,1.531c0.483,0.625,0.815,1.329,1.001,2.118
		c0.192,0.79,0.283,1.917,0.283,3.387V37.491L123.071,37.491z M136.997,18.422v4.005h-3.483v7.723c0,1.567,0.032,2.479,0.1,2.736
		c0.067,0.257,0.215,0.472,0.457,0.643c0.235,0.165,0.519,0.251,0.858,0.251c0.476,0,1.154-0.16,2.05-0.484l0.428,3.919
		c-1.181,0.502-2.514,0.753-4.009,0.753c-0.915,0-1.735-0.153-2.471-0.458c-0.733-0.307-1.272-0.705-1.612-1.188
		c-0.346-0.491-0.579-1.146-0.715-1.979c-0.105-0.587-0.16-1.775-0.16-3.57v-8.346h-2.335v-4.005h2.335v-3.784l5.074-2.977v6.761
		H136.997L136.997,18.422z M151.67,31.466l5.076,0.845c-0.647,1.843-1.68,3.246-3.081,4.212c-1.408,0.961-3.168,1.445-5.274,1.445
		c-3.341,0-5.816-1.083-7.416-3.251c-1.267-1.739-1.902-3.931-1.902-6.583c0-3.16,0.834-5.641,2.494-7.429
		c1.663-1.794,3.767-2.688,6.312-2.688c2.852,0,5.107,0.938,6.763,2.812c1.647,1.873,2.438,4.746,2.363,8.615h-12.708
		c0.037,1.495,0.445,2.659,1.229,3.491c0.779,0.833,1.754,1.25,2.915,1.25c0.796,0,1.462-0.214,2.001-0.644
		C150.985,33.112,151.393,32.42,151.67,31.466L151.67,31.466z M151.966,26.358c-0.038-1.463-0.413-2.578-1.137-3.337
		c-0.721-0.765-1.599-1.145-2.636-1.145c-1.105,0-2.019,0.403-2.742,1.207c-0.723,0.802-1.075,1.898-1.062,3.275H151.966
		L151.966,26.358z M166.014,37.491h-5.074V18.422h4.705v2.708c0.81-1.281,1.538-2.12,2.187-2.518
		c0.649-0.397,1.382-0.594,2.204-0.594c1.161,0,2.279,0.319,3.353,0.95l-1.574,4.397c-0.859-0.551-1.656-0.827-2.391-0.827
		c-0.716,0-1.322,0.195-1.815,0.582c-0.495,0.392-0.883,1.09-1.167,2.106c-0.284,1.018-0.427,3.147-0.427,6.387V37.491
		L166.014,37.491z M193.068,37.491h-5.076v-9.719c0-2.056-0.111-3.385-0.327-3.985c-0.223-0.606-0.574-1.071-1.069-1.409
		c-0.494-0.336-1.085-0.501-1.778-0.501c-0.889,0-1.686,0.238-2.388,0.716c-0.712,0.479-1.193,1.116-1.454,1.898
		c-0.264,0.79-0.394,2.247-0.394,4.379v8.622h-5.077V18.422h4.707v2.798c1.685-2.137,3.802-3.203,6.365-3.203
		c1.124,0,2.156,0.203,3.089,0.601c0.938,0.403,1.643,0.913,2.117,1.531c0.482,0.625,0.815,1.329,1,2.118
		c0.192,0.79,0.285,1.917,0.285,3.387V37.491L193.068,37.491z M201.99,24.301l-4.593-0.809c0.519-1.862,1.413-3.241,2.68-4.133
		c1.266-0.894,3.149-1.342,5.643-1.342c2.268,0,3.959,0.265,5.07,0.797c1.106,0.532,1.891,1.207,2.34,2.027
		c0.452,0.82,0.682,2.321,0.682,4.513l-0.075,5.879c0,1.672,0.08,2.91,0.241,3.704c0.161,0.797,0.464,1.648,0.906,2.554h-5.038
		c-0.131-0.331-0.297-0.82-0.488-1.469c-0.081-0.3-0.143-0.496-0.179-0.589c-0.864,0.846-1.791,1.477-2.777,1.899
		c-0.989,0.422-2.04,0.637-3.156,0.637c-1.97,0-3.526-0.533-4.663-1.598c-1.136-1.059-1.704-2.407-1.704-4.036
		c0-1.071,0.259-2.032,0.777-2.878c0.52-0.838,1.242-1.487,2.181-1.935c0.933-0.446,2.279-0.839,4.039-1.176
		c2.37-0.441,4.02-0.856,4.935-1.236V24.6c0-0.979-0.242-1.677-0.724-2.1c-0.487-0.417-1.402-0.625-2.741-0.625
		c-0.909,0-1.611,0.177-2.118,0.539C202.714,22.77,202.306,23.4,201.99,24.301L201.99,24.301z M208.81,28.379
		c-0.649,0.213-1.681,0.471-3.095,0.771c-1.408,0.3-2.334,0.594-2.768,0.875c-0.659,0.472-0.993,1.059-0.993,1.776
		c0,0.71,0.266,1.317,0.796,1.83c0.531,0.515,1.204,0.772,2.024,0.772c0.915,0,1.793-0.301,2.627-0.895
		c0.611-0.458,1.018-1.011,1.209-1.672c0.13-0.429,0.199-1.25,0.199-2.455V28.379L208.81,28.379z M227.599,18.422v4.005h-3.481
		v7.723c0,1.567,0.03,2.479,0.098,2.736c0.068,0.257,0.217,0.472,0.457,0.643c0.236,0.165,0.519,0.251,0.859,0.251
		c0.477,0,1.154-0.16,2.049-0.484l0.428,3.919c-1.18,0.502-2.514,0.753-4.009,0.753c-0.914,0-1.734-0.153-2.47-0.458
		c-0.734-0.307-1.272-0.705-1.611-1.188c-0.348-0.491-0.58-1.146-0.718-1.979c-0.103-0.587-0.159-1.775-0.159-3.57v-8.346h-2.334
		v-4.005h2.334v-3.784l5.076-2.977v6.761H227.599L227.599,18.422z M231.157,15.85v-4.666h5.075v4.666H231.157L231.157,15.85z
		 M231.157,37.491V18.422h5.075v19.069H231.157L231.157,37.491z M240.265,27.724c0-1.679,0.414-3.301,1.248-4.869
		c0.832-1.573,2.013-2.768,3.538-3.594c1.524-0.827,3.223-1.244,5.106-1.244c2.909,0,5.286,0.938,7.145,2.812
		c1.859,1.88,2.784,4.244,2.784,7.11c0,2.891-0.937,5.284-2.809,7.182c-1.878,1.898-4.236,2.848-7.082,2.848
		c-1.761,0-3.439-0.398-5.039-1.188c-1.594-0.79-2.812-1.947-3.644-3.478C240.679,31.778,240.265,29.916,240.265,27.724
		L240.265,27.724z M245.489,27.994c0,1.892,0.45,3.343,1.353,4.348c0.907,1.009,2.02,1.512,3.347,1.512
		c1.321,0,2.434-0.503,3.329-1.512c0.894-1.004,1.346-2.468,1.346-4.386c0-1.867-0.452-3.306-1.346-4.31
		c-0.896-1.011-2.008-1.512-3.329-1.512c-1.327,0-2.439,0.501-3.347,1.512C245.939,24.65,245.489,26.1,245.489,27.994
		L245.489,27.994z M281.57,37.491h-5.076v-9.719c0-2.056-0.11-3.385-0.327-3.985c-0.223-0.606-0.574-1.071-1.067-1.409
		c-0.495-0.336-1.088-0.501-1.779-0.501c-0.891,0-1.687,0.238-2.389,0.716c-0.712,0.479-1.193,1.116-1.452,1.898
		c-0.266,0.79-0.396,2.247-0.396,4.379v8.622h-5.076V18.422h4.706v2.798c1.687-2.137,3.804-3.203,6.367-3.203
		c1.123,0,2.154,0.203,3.087,0.601c0.938,0.403,1.643,0.913,2.117,1.531c0.482,0.625,0.815,1.329,1,2.118
		c0.192,0.79,0.285,1.917,0.285,3.387V37.491L281.57,37.491z M290.493,24.301l-4.594-0.809c0.519-1.862,1.414-3.241,2.681-4.133
		c1.265-0.894,3.148-1.342,5.644-1.342c2.267,0,3.957,0.265,5.068,0.797c1.106,0.532,1.891,1.207,2.341,2.027
		c0.452,0.82,0.68,2.321,0.68,4.513l-0.073,5.879c0,1.672,0.079,2.91,0.24,3.704c0.16,0.797,0.464,1.648,0.907,2.554h-5.039
		c-0.129-0.331-0.296-0.82-0.488-1.469c-0.079-0.3-0.143-0.496-0.179-0.589c-0.863,0.846-1.791,1.477-2.777,1.899
		c-0.988,0.422-2.04,0.637-3.156,0.637c-1.97,0-3.526-0.533-4.663-1.598c-1.136-1.059-1.702-2.407-1.702-4.036
		c0-1.071,0.257-2.032,0.777-2.878c0.519-0.838,1.24-1.487,2.179-1.935c0.933-0.446,2.279-0.839,4.039-1.176
		c2.371-0.441,4.02-0.856,4.934-1.236V24.6c0-0.979-0.241-1.677-0.723-2.1c-0.487-0.417-1.4-0.625-2.741-0.625
		c-0.908,0-1.611,0.177-2.118,0.539C291.216,22.77,290.807,23.4,290.493,24.301L290.493,24.301z M297.311,28.379
		c-0.648,0.213-1.68,0.471-3.093,0.771c-1.409,0.3-2.336,0.594-2.769,0.875c-0.659,0.472-0.993,1.059-0.993,1.776
		c0,0.71,0.266,1.317,0.796,1.83c0.532,0.515,1.205,0.772,2.026,0.772c0.914,0,1.791-0.301,2.625-0.895
		c0.611-0.458,1.018-1.011,1.21-1.672c0.129-0.429,0.197-1.25,0.197-2.455V28.379L297.311,28.379z M307.32,37.491V11.184h5.077
		v26.307H307.32z"></path> <path fill-rule="evenodd" clip-rule="evenodd" fill="#007FFF" d="M64.937,7.311c13.593,0,24.614,11.021,24.614,24.616
		c0,5.151-1.583,9.935-4.289,13.886c-5.919,8.655-14.273,17.429-20.527,25.937c-5.043-6.825-19.017-22.941-22.017-29.215
		c-1.535-3.212-2.397-6.809-2.397-10.607C40.32,18.331,51.34,7.311,64.937,7.311z"></path> <circle fill-rule="evenodd" clip-rule="evenodd" fill="#FEFEFE" cx="64.935" cy="31.784" r="14.909"></circle> <polyline fill-rule="evenodd" clip-rule="evenodd" fill="none" stroke="#007FFF" stroke-width="2.6816" stroke-miterlimit="22.9256" points="
		64.479,19.044 64.62,32.44 73.742,26.671 	"></polyline> <line fill-rule="evenodd" clip-rule="evenodd" fill="none" stroke="#007FFF" stroke-width="2.6813" stroke-miterlimit="22.9256" x1="52.205" y1="31.599" x2="55.15" y2="31.599"></line> <line fill-rule="evenodd" clip-rule="evenodd" fill="none" stroke="#007FFF" stroke-width="2.6816" stroke-miterlimit="22.9256" x1="75.211" y1="31.599" x2="78.157" y2="31.599"></line> <line fill-rule="evenodd" clip-rule="evenodd" fill="none" stroke="#007FFF" stroke-width="2.6813" stroke-miterlimit="22.9256" x1="64.482" y1="44.575" x2="64.482" y2="41.629"></line> <path fill-rule="evenodd" clip-rule="evenodd" fill="#606062" d="M98.042,51.3c0,0.656,0.131,1.197,0.399,1.625
		c0.268,0.435,0.621,0.788,1.073,1.067c0.451,0.273,0.97,0.508,1.562,0.685c0.594,0.178,1.216,0.343,1.854,0.502
		c0.867,0.212,1.717,0.445,2.556,0.701c0.839,0.257,1.581,0.611,2.236,1.062c0.657,0.45,1.187,1.038,1.592,1.764
		c0.405,0.724,0.604,1.652,0.604,2.793c0,1.159-0.216,2.157-0.656,3.001c-0.439,0.839-1.05,1.529-1.826,2.071
		c-0.775,0.542-1.688,0.941-2.749,1.204c-1.062,0.262-2.219,0.393-3.475,0.393c-0.582,0-1.175-0.033-1.779-0.107
		c-0.61-0.075-1.186-0.171-1.74-0.291c-0.553-0.12-1.05-0.263-1.495-0.417c-0.444-0.153-0.798-0.313-1.055-0.468v-2.481
		c0.399,0.2,0.85,0.377,1.353,0.542c0.501,0.166,1.02,0.308,1.556,0.422c0.537,0.114,1.073,0.205,1.621,0.273
		c0.547,0.063,1.061,0.099,1.539,0.099c0.776,0,1.523-0.069,2.231-0.2c0.708-0.137,1.329-0.359,1.859-0.668
		c0.537-0.313,0.958-0.741,1.272-1.277c0.313-0.542,0.468-1.215,0.468-2.031c0-0.668-0.137-1.22-0.41-1.654
		c-0.268-0.433-0.634-0.792-1.09-1.078c-0.457-0.285-0.981-0.514-1.574-0.695c-0.599-0.177-1.221-0.342-1.877-0.496
		c-0.873-0.205-1.717-0.428-2.544-0.679c-0.833-0.252-1.569-0.6-2.219-1.045c-0.65-0.444-1.176-1.021-1.569-1.722
		c-0.394-0.702-0.594-1.604-0.594-2.692c0-1.136,0.206-2.117,0.622-2.932c0.417-0.822,0.981-1.5,1.69-2.037
		c0.711-0.53,1.528-0.93,2.452-1.186c0.924-0.257,1.911-0.382,2.96-0.382c1.193,0,2.299,0.114,3.332,0.342
		c1.032,0.228,1.974,0.531,2.835,0.896v2.528c-0.924-0.388-1.882-0.708-2.869-0.954c-0.987-0.246-2.043-0.37-3.167-0.382
		c-0.843,0-1.58,0.091-2.207,0.273c-0.622,0.184-1.141,0.445-1.552,0.788c-0.41,0.336-0.719,0.747-0.918,1.232
		C98.144,50.17,98.042,50.706,98.042,51.3L98.042,51.3z M121.208,51.465c0.77,0,1.505,0.081,2.208,0.24
		c0.701,0.16,1.3,0.382,1.802,0.673v2.133c-0.701-0.262-1.346-0.461-1.94-0.593c-0.587-0.131-1.191-0.194-1.802-0.194
		c-0.65,0-1.29,0.108-1.923,0.319c-0.632,0.212-1.204,0.56-1.705,1.044c-0.502,0.485-0.908,1.124-1.209,1.923
		c-0.308,0.793-0.462,1.786-0.462,2.966c0,0.856,0.114,1.649,0.342,2.373c0.229,0.726,0.571,1.353,1.021,1.884
		c0.451,0.523,1.015,0.94,1.695,1.232c0.679,0.296,1.465,0.443,2.356,0.443c0.65,0,1.3-0.068,1.956-0.205
		c0.657-0.137,1.301-0.331,1.923-0.582v2.145c-0.188,0.114-0.438,0.223-0.742,0.337c-0.308,0.109-0.645,0.205-1.015,0.291
		c-0.366,0.081-0.753,0.149-1.169,0.2c-0.412,0.051-0.822,0.073-1.239,0.073c-1.065,0-2.077-0.159-3.028-0.484
		c-0.953-0.319-1.786-0.815-2.499-1.483c-0.713-0.673-1.277-1.517-1.688-2.544c-0.41-1.021-0.617-2.236-0.617-3.64
		c0-1.043,0.109-1.984,0.326-2.823c0.217-0.833,0.514-1.568,0.896-2.201c0.377-0.635,0.815-1.176,1.324-1.621
		c0.508-0.445,1.049-0.81,1.619-1.096c0.577-0.284,1.17-0.491,1.781-0.615C120.032,51.528,120.626,51.465,121.208,51.465
		L121.208,51.465z M132.176,54.055h0.052c0.291-0.364,0.61-0.708,0.969-1.027c0.354-0.319,0.747-0.592,1.187-0.822
		c0.433-0.228,0.901-0.405,1.398-0.542c0.501-0.131,1.043-0.2,1.625-0.2c0.599,0,1.199,0.081,1.803,0.24
		c0.598,0.165,1.157,0.451,1.67,0.861c0.508,0.417,0.93,0.987,1.25,1.722c0.326,0.736,0.485,1.685,0.485,2.841v10.628h-2.601V57.546
		c0-1.277-0.24-2.241-0.725-2.887c-0.484-0.645-1.278-0.969-2.378-0.969c-0.913,0-1.781,0.245-2.601,0.741
		c-0.822,0.496-1.535,1.18-2.134,2.048v11.277h-2.601V43.559h2.601V54.055L132.176,54.055z M159.085,59.833
		c0-0.98-0.121-1.854-0.359-2.618c-0.24-0.764-0.577-1.414-1.004-1.945c-0.433-0.531-0.941-0.929-1.535-1.204
		c-0.593-0.273-1.243-0.41-1.945-0.41c-0.701,0-1.351,0.137-1.944,0.41c-0.594,0.275-1.102,0.673-1.535,1.204
		c-0.428,0.531-0.764,1.182-1.004,1.945c-0.24,0.765-0.359,1.638-0.359,2.618c0,0.97,0.119,1.837,0.359,2.602
		c0.24,0.764,0.577,1.409,1.017,1.935c0.433,0.524,0.946,0.924,1.539,1.197c0.594,0.273,1.244,0.41,1.945,0.41
		c0.703,0,1.346-0.137,1.935-0.41c0.587-0.273,1.095-0.673,1.528-1.197c0.428-0.525,0.764-1.171,1.004-1.935
		C158.965,61.67,159.085,60.803,159.085,59.833L159.085,59.833z M161.79,59.833c0,1.25-0.177,2.386-0.537,3.405
		c-0.354,1.027-0.862,1.905-1.512,2.631c-0.655,0.729-1.442,1.294-2.368,1.7c-0.929,0.398-1.968,0.598-3.114,0.598
		c-1.181,0-2.242-0.199-3.171-0.598c-0.93-0.406-1.723-0.971-2.379-1.7c-0.65-0.726-1.146-1.604-1.494-2.631
		c-0.349-1.02-0.52-2.155-0.52-3.405c0-1.26,0.177-2.4,0.536-3.423c0.354-1.026,0.862-1.904,1.512-2.641
		c0.656-0.736,1.449-1.3,2.378-1.706c0.931-0.399,1.974-0.599,3.12-0.599c1.17,0,2.226,0.2,3.162,0.599
		c0.941,0.405,1.733,0.969,2.378,1.706c0.645,0.736,1.141,1.614,1.488,2.641C161.618,57.433,161.79,58.573,161.79,59.833
		L161.79,59.833z M177.333,59.833c0-0.98-0.121-1.854-0.359-2.618c-0.24-0.764-0.577-1.414-1.004-1.945
		c-0.433-0.531-0.941-0.929-1.535-1.204c-0.593-0.273-1.243-0.41-1.945-0.41c-0.702,0-1.352,0.137-1.944,0.41
		c-0.594,0.275-1.102,0.673-1.535,1.204c-0.427,0.531-0.764,1.182-1.004,1.945c-0.24,0.765-0.359,1.638-0.359,2.618
		c0,0.97,0.119,1.837,0.359,2.602c0.24,0.764,0.577,1.409,1.016,1.935c0.433,0.524,0.946,0.924,1.54,1.197
		c0.594,0.273,1.244,0.41,1.945,0.41c0.703,0,1.346-0.137,1.935-0.41c0.587-0.273,1.096-0.673,1.529-1.197
		c0.427-0.525,0.764-1.171,1.004-1.935C177.213,61.67,177.333,60.803,177.333,59.833L177.333,59.833z M180.038,59.833
		c0,1.25-0.177,2.386-0.536,3.405c-0.354,1.027-0.862,1.905-1.512,2.631c-0.656,0.729-1.443,1.294-2.368,1.7
		c-0.929,0.398-1.968,0.598-3.114,0.598c-1.181,0-2.242-0.199-3.17-0.598c-0.931-0.406-1.723-0.971-2.38-1.7
		c-0.65-0.726-1.146-1.604-1.494-2.631c-0.349-1.02-0.521-2.155-0.521-3.405c0-1.26,0.177-2.4,0.537-3.423
		c0.354-1.026,0.862-1.904,1.512-2.641c0.656-0.736,1.449-1.3,2.378-1.706c0.931-0.399,1.974-0.599,3.12-0.599
		c1.17,0,2.226,0.2,3.161,0.599c0.941,0.405,1.733,0.969,2.378,1.706s1.141,1.614,1.488,2.641
		C179.866,57.433,180.038,58.573,180.038,59.833L180.038,59.833z M184.286,67.757V43.559h2.602v24.198H184.286L184.286,67.757z
		 M192.228,67.757v-15.88h2.601v15.88H192.228L192.228,67.757z M192.159,48.179v-2.875h2.601v2.875H192.159L192.159,48.179z
		 M202.508,54.083h0.046c0.29-0.37,0.609-0.707,0.964-1.027c0.347-0.313,0.741-0.593,1.181-0.833
		c0.434-0.24,0.906-0.428,1.425-0.559c0.52-0.131,1.085-0.2,1.7-0.2c0.726,0,1.404,0.104,2.037,0.303
		c0.64,0.2,1.187,0.524,1.654,0.969c0.468,0.445,0.839,1.027,1.112,1.745c0.274,0.719,0.41,1.597,0.41,2.646v10.628h-2.601V57.546
		c0-1.368-0.263-2.35-0.792-2.955c-0.526-0.599-1.296-0.9-2.312-0.9c-0.89,0-1.751,0.245-2.584,0.741
		c-0.832,0.496-1.551,1.175-2.15,2.042v11.283h-2.601v-15.88h2.007L202.508,54.083L202.508,54.083z M219.825,59.925
		c0,1.249,0.149,2.271,0.45,3.058c0.304,0.793,0.686,1.409,1.153,1.848c0.461,0.439,0.964,0.741,1.511,0.902
		c0.549,0.165,1.067,0.244,1.559,0.244c0.804,0,1.563-0.165,2.265-0.489c0.7-0.326,1.323-0.771,1.859-1.33v-8.306
		c-0.143-0.2-0.348-0.428-0.604-0.679c-0.257-0.257-0.555-0.49-0.896-0.707s-0.73-0.4-1.163-0.553
		c-0.434-0.148-0.913-0.223-1.427-0.223c-0.77,0-1.448,0.152-2.036,0.461c-0.582,0.304-1.073,0.731-1.471,1.278
		c-0.395,0.548-0.696,1.198-0.896,1.962C219.929,58.156,219.825,59.001,219.825,59.925L219.825,59.925z M224.207,51.465
		c0.69,0.012,1.295,0.098,1.809,0.268c0.514,0.167,0.951,0.372,1.323,0.622c0.364,0.251,0.661,0.496,0.878,0.742
		c0.218,0.245,0.365,0.439,0.445,0.582h0.068l0.536-1.802h1.956v16.811c0,1.226-0.199,2.293-0.604,3.199
		c-0.399,0.907-0.964,1.661-1.688,2.266c-0.73,0.598-1.603,1.05-2.623,1.341c-1.021,0.296-2.15,0.443-3.395,0.443
		c-1.05,0-1.986-0.092-2.813-0.273c-0.827-0.183-1.471-0.405-1.938-0.656v-2.185c0.377,0.154,0.747,0.285,1.101,0.389
		c0.359,0.102,0.725,0.188,1.106,0.262c0.377,0.068,0.764,0.126,1.163,0.154c0.395,0.034,0.834,0.052,1.313,0.052
		c1.864,0,3.296-0.435,4.29-1.302c0.992-0.873,1.488-2.196,1.488-3.976v-2.122h-0.052c-0.57,0.622-1.227,1.096-1.985,1.415
		c-0.753,0.313-1.614,0.473-2.583,0.473c-0.445,0-0.925-0.051-1.438-0.147c-0.513-0.104-1.026-0.274-1.539-0.514
		c-0.514-0.24-1.005-0.554-1.478-0.953c-0.468-0.393-0.88-0.89-1.239-1.482c-0.353-0.6-0.644-1.301-0.86-2.117
		c-0.217-0.81-0.326-1.751-0.326-2.816c0-1.484,0.2-2.768,0.604-3.851c0.399-1.09,0.931-1.985,1.592-2.699
		c0.657-0.713,1.409-1.244,2.259-1.596C222.427,51.642,223.299,51.465,224.207,51.465z"></path> </g> </svg>