<?xml version="1.0" encoding="UTF-8"?>
<!DOCTYPE svg PUBLIC "-//W3C//DTD SVG 1.1//EN" "http://www.w3.org/Graphics/SVG/1.1/DTD/svg11.dtd">
<!-- Creator: CorelDRAW X7 -->
<svg xmlns="http://www.w3.org/2000/svg" xml:space="preserve" width="101.6mm" height="34.1828mm" version="1.1" style="shape-rendering:geometricPrecision; text-rendering:geometricPrecision; image-rendering:optimizeQuality; fill-rule:evenodd; clip-rule:evenodd"
viewBox="0 0 10160 3418"
 xmlns:xlink="http://www.w3.org/1999/xlink">
 <defs>
  <style type="text/css">
   <![CDATA[
    .str0 {stroke:#9D9E9E;stroke-width:17.64}
    .fil4 {fill:none}
    .fil2 {fill:#5B5B5B}
    .fil0 {fill:#007FFF}
    .fil3 {fill:#5B5B5B;fill-rule:nonzero}
    .fil1 {fill:#007FFF;fill-rule:nonzero}
   ]]>
  </style>
 </defs>
 <g id="Layer_x0020_1">
  <metadata id="CorelCorpID_0Corel-Layer"/>
  <g id="_733687752">
   <path class="fil0" d="M1957 1157l0 -939 192 0 0 939 -192 0zm998 0l-182 0 0 -347c0,-74 -4,-121 -11,-143 -8,-21 -21,-38 -38,-50 -18,-12 -39,-18 -64,-18 -32,0 -60,9 -85,26 -26,17 -43,40 -52,68 -9,28 -14,80 -14,156l0 308 -181 0 0 -681 168 0 0 100c60,-76 135,-114 227,-114 40,0 77,7 110,21 34,14 59,33 76,55 17,22 29,47 36,75 6,28 10,69 10,121l0 423zm497 -681l0 143 -125 0 0 276c0,56 2,88 4,97 2,10 8,17 16,23 9,6 19,9 31,9 17,0 41,-5 73,-17l15 140c-42,18 -89,27 -143,27 -32,0 -62,-6 -88,-17 -26,-10 -45,-25 -57,-42 -13,-17 -21,-41 -26,-71 -4,-21 -6,-63 -6,-127l0 -298 -83 0 0 -143 83 0 0 -135 181 -106 0 241 125 0zm524 466l181 30c-23,66 -60,116 -110,150 -50,35 -113,52 -188,52 -120,0 -208,-39 -265,-116 -45,-62 -68,-141 -68,-235 0,-113 30,-202 89,-266 59,-64 135,-95 225,-95 102,0 183,33 242,100 59,67 87,169 84,308l-454 0c2,53 16,94 44,124 28,30 63,45 104,45 29,0 53,-8 72,-23 19,-16 34,-40 44,-74zm10 -183c-1,-52 -14,-92 -40,-119 -26,-27 -57,-41 -94,-41 -40,0 -72,15 -98,43 -26,29 -39,68 -38,117l270 0zm502 398l-181 0 0 -681 168 0 0 97c29,-46 55,-76 78,-90 23,-14 49,-21 78,-21 42,0 82,11 120,33l-56 157c-31,-19 -59,-29 -85,-29 -26,0 -48,7 -65,21 -18,14 -32,39 -42,75 -10,36 -15,112 -15,228l0 210zm966 0l-181 0 0 -347c0,-74 -4,-121 -12,-143 -8,-21 -21,-38 -38,-50 -18,-12 -39,-18 -64,-18 -31,0 -60,9 -85,26 -25,17 -43,40 -52,68 -9,28 -14,80 -14,156l0 308 -181 0 0 -681 168 0 0 100c60,-76 136,-114 227,-114 40,0 77,7 110,21 34,14 59,33 76,55 17,22 29,47 36,75 7,28 10,69 10,121l0 423zm318 -471l-164 -29c19,-66 51,-116 96,-148 45,-31 113,-47 202,-47 81,0 141,9 181,28 39,19 67,43 83,72 16,30 24,83 24,161l-2 210c0,60 3,104 8,133 6,28 17,58 33,91l-180 0c-5,-12 -11,-29 -18,-53 -2,-10 -5,-17 -6,-21 -31,31 -64,53 -99,68 -35,15 -73,23 -113,23 -70,0 -126,-19 -166,-57 -41,-38 -61,-86 -61,-144 0,-39 9,-73 28,-103 18,-30 44,-53 77,-69 34,-16 82,-30 145,-42 84,-16 143,-31 176,-44l0 -18c0,-35 -9,-60 -26,-75 -17,-15 -50,-23 -98,-23 -32,0 -57,7 -75,20 -19,12 -33,35 -45,67zm244 145c-23,8 -60,17 -111,28 -50,11 -83,21 -98,31 -24,17 -36,38 -36,64 0,25 10,47 29,65 19,18 43,28 72,28 32,0 64,-11 94,-32 21,-17 36,-36 43,-60 4,-15 7,-45 7,-88l0 -36zm671 -355l0 143 -125 0 0 276c0,56 2,88 4,97 2,10 8,17 16,23 9,6 19,9 31,9 17,0 41,-5 73,-17l15 140c-42,18 -89,27 -143,27 -32,0 -62,-6 -88,-17 -26,-10 -45,-25 -57,-42 -13,-17 -21,-41 -26,-71 -4,-21 -6,-63 -6,-127l0 -298 -83 0 0 -143 83 0 0 -135 181 -106 0 241 125 0zm127 -92l0 -166 181 0 0 166 -181 0zm0 773l0 -681 181 0 0 681 -181 0zm325 -349c0,-60 15,-118 45,-174 29,-56 71,-99 126,-128 54,-30 115,-44 182,-44 104,0 189,33 255,100 67,67 100,151 100,254 0,103 -34,188 -101,256 -67,68 -151,102 -252,102 -63,0 -123,-14 -180,-43 -57,-28 -101,-69 -130,-124 -30,-54 -45,-121 -45,-199zm187 10c0,67 16,119 48,155 32,36 72,54 119,54 48,0 87,-18 119,-54 32,-36 48,-88 48,-157 0,-66 -16,-118 -48,-154 -32,-36 -71,-54 -119,-54 -47,0 -87,18 -119,54 -32,36 -48,88 -48,156zm1288 339l-181 0 0 -347c0,-74 -4,-121 -12,-143 -8,-21 -21,-38 -38,-50 -18,-12 -39,-18 -64,-18 -32,0 -60,9 -85,26 -25,17 -43,40 -52,68 -9,28 -14,80 -14,156l0 308 -181 0 0 -681 168 0 0 100c60,-76 136,-114 227,-114 40,0 77,7 110,21 34,14 59,33 76,55 17,22 29,47 36,75 6,28 10,69 10,121l0 423zm318 -471l-164 -29c19,-66 51,-116 96,-148 45,-31 113,-47 202,-47 81,0 141,9 181,28 39,19 67,43 83,72 16,30 24,83 24,161l-2 210c0,60 3,104 8,133 6,28 17,58 33,91l-180 0c-5,-12 -11,-29 -18,-53 -2,-10 -5,-17 -6,-21 -31,31 -64,53 -99,68 -35,15 -73,23 -113,23 -70,0 -126,-19 -166,-57 -41,-38 -61,-86 -61,-144 0,-39 9,-73 28,-103 18,-30 44,-53 77,-69 34,-16 82,-30 145,-42 84,-16 143,-31 176,-44l0 -18c0,-35 -9,-60 -26,-75 -17,-15 -50,-23 -98,-23 -32,0 -57,7 -75,20 -19,12 -33,35 -45,67zm244 145c-23,8 -60,17 -111,28 -50,11 -83,21 -98,31 -24,17 -36,38 -36,64 0,25 10,47 29,65 19,18 43,28 72,28 32,0 64,-11 94,-32 21,-17 36,-36 43,-60 4,-15 7,-45 7,-88l0 -36zm357 326l0 -939 182 0 0 939 -182 0z"/>
   <g>
    <path class="fil0" d="M879 79c485,0 879,394 879,879 0,184 -57,355 -153,496 -212,309 -510,622 -733,926 -180,-244 -679,-819 -786,-1043 -55,-115 -86,-243 -86,-379 0,-485 393,-879 879,-879zm0 342c294,0 532,238 532,532 0,294 -238,532 -532,532 -294,0 -532,-238 -532,-532 0,-294 238,-532 532,-532z"/>
    <path class="fil1" d="M424 899l106 0 0 95 -106 0 0 -95zm391 511l0 -105 96 0 0 105 -96 0zm431 -511l105 0 0 95 -105 0 0 -95zm-336 -401l4 392 254 -160 51 81 -326 206 -72 46 -1 -86 -5 -478 95 -1z"/>
   </g>
   <path class="fil2" d="M2061 1650c0,23 5,43 14,58 10,15 22,28 39,38 16,10 34,18 55,24 21,7 44,13 66,18 31,8 62,16 92,25 30,10 56,22 80,38 23,16 42,37 56,63 15,26 22,59 22,100 0,41 -8,77 -23,107 -16,30 -38,55 -66,74 -27,19 -60,34 -98,43 -38,9 -79,14 -124,14 -21,0 -42,-1 -63,-4 -22,-2 -43,-6 -62,-10 -20,-4 -38,-9 -54,-15 -16,-6 -28,-11 -38,-17l0 -88c15,7 31,13 49,19 18,6 36,11 55,15 19,4 39,7 58,10 20,2 38,3 55,3 28,0 55,-2 80,-7 25,-5 47,-13 66,-24 19,-11 34,-26 46,-45 11,-20 16,-44 16,-73 0,-24 -5,-43 -14,-59 -10,-15 -23,-28 -39,-38 -17,-11 -35,-19 -56,-25 -22,-6 -44,-12 -67,-18 -32,-7 -62,-15 -91,-24 -30,-9 -56,-21 -80,-37 -23,-16 -41,-37 -56,-62 -14,-25 -21,-57 -21,-96 0,-41 8,-76 22,-105 15,-29 36,-53 61,-72 25,-19 54,-34 87,-43 33,-9 69,-13 106,-13 43,0 82,4 119,12 37,8 70,19 101,32l0 90c-33,-14 -67,-25 -102,-34 -35,-9 -73,-13 -113,-14 -30,0 -57,4 -79,10 -22,7 -41,16 -55,28 -15,12 -26,27 -33,44 -7,18 -11,37 -11,58zm827 6c28,0 54,3 79,8 25,6 46,14 64,24l0 77c-25,-10 -48,-17 -69,-22 -21,-4 -43,-7 -64,-7 -24,0 -46,4 -69,12 -23,7 -43,20 -61,37 -18,17 -32,40 -43,69 -11,28 -17,63 -17,106 0,30 5,59 13,84 8,26 20,49 36,68 16,18 36,33 61,44 24,10 52,15 84,15 23,0 46,-2 70,-7 23,-5 46,-12 68,-21l0 77c-6,4 -15,8 -26,12 -11,4 -23,7 -36,10 -14,3 -27,6 -42,7 -15,2 -30,3 -44,3 -39,0 -75,-6 -109,-17 -34,-12 -63,-29 -89,-53 -25,-24 -45,-54 -60,-91 -15,-36 -22,-80 -22,-130 0,-37 4,-71 12,-101 7,-29 18,-56 32,-78 13,-23 29,-42 47,-58 18,-16 37,-29 58,-39 20,-10 41,-18 63,-22 22,-5 43,-7 64,-7zm392 92l2 0c10,-13 21,-25 34,-36 13,-12 27,-22 43,-30 15,-8 32,-14 49,-19 18,-5 38,-7 59,-7 21,0 42,3 64,8 21,6 41,16 60,31 18,15 33,35 44,62 12,26 17,60 17,101l0 379 -92 0 0 -364c0,-46 -9,-80 -26,-103 -18,-23 -46,-35 -85,-35 -33,0 -64,9 -93,27 -29,17 -55,42 -76,73l0 402 -93 0 0 -864 93 0 0 375zm961 207c0,-35 -5,-67 -13,-94 -9,-27 -21,-50 -36,-69 -16,-19 -34,-34 -55,-43 -21,-10 -44,-15 -69,-15 -25,0 -49,5 -70,15 -21,9 -39,24 -55,43 -15,19 -27,42 -36,69 -8,27 -12,59 -12,94 0,34 4,65 12,92 9,28 21,51 37,69 15,19 34,33 55,43 21,10 44,15 69,15 25,0 48,-5 69,-15 21,-10 39,-24 55,-43 15,-18 27,-41 36,-69 8,-27 13,-58 13,-92zm96 0c0,44 -6,85 -19,121 -13,37 -31,68 -54,94 -23,26 -52,46 -85,61 -33,14 -70,21 -111,21 -42,0 -80,-7 -113,-21 -33,-15 -62,-35 -85,-61 -23,-26 -41,-57 -53,-94 -13,-36 -19,-77 -19,-121 0,-45 6,-86 19,-123 13,-36 31,-68 54,-94 24,-26 52,-46 85,-61 33,-14 71,-21 112,-21 41,0 79,7 112,21 34,15 62,35 85,61 23,26 41,58 53,94 13,37 19,78 19,123zm555 0c0,-35 -4,-67 -13,-94 -8,-27 -20,-50 -36,-69 -15,-19 -33,-34 -54,-43 -22,-10 -45,-15 -70,-15 -25,0 -48,5 -69,15 -22,9 -40,24 -55,43 -15,19 -27,42 -36,69 -9,27 -13,59 -13,94 0,34 4,65 13,92 9,28 21,51 36,69 16,19 34,33 55,43 21,10 45,15 70,15 25,0 48,-5 69,-15 21,-10 39,-24 54,-43 16,-18 28,-41 36,-69 9,-27 13,-58 13,-92zm97 0c0,44 -7,85 -20,121 -12,37 -30,68 -54,94 -23,26 -51,46 -84,61 -33,14 -70,21 -111,21 -42,0 -80,-7 -113,-21 -34,-15 -62,-35 -85,-61 -24,-26 -41,-57 -54,-94 -12,-36 -18,-77 -18,-121 0,-45 6,-86 19,-123 12,-36 31,-68 54,-94 23,-26 52,-46 85,-61 33,-14 70,-21 111,-21 42,0 80,7 113,21 34,15 62,35 85,61 23,26 41,58 53,94 12,37 19,78 19,123zm151 282l0 -864 93 0 0 864 -93 0zm284 0l0 -567 93 0 0 567 -93 0zm-3 -699l0 -102 93 0 0 102 -93 0zm370 211l2 0c10,-13 21,-25 34,-36 12,-12 26,-22 42,-30 16,-9 32,-15 51,-20 19,-5 39,-7 61,-7 26,0 50,3 72,11 23,7 43,18 59,34 17,16 30,37 40,63 10,25 15,57 15,94l0 379 -93 0 0 -364c0,-49 -9,-84 -28,-106 -19,-21 -47,-32 -83,-32 -32,0 -62,9 -92,27 -30,17 -55,42 -77,73l0 402 -93 0 0 -567 72 0 18 79zm618 209c0,44 6,81 16,109 11,28 25,50 41,66 17,16 35,26 54,32 20,6 39,9 56,9 29,0 56,-6 81,-18 25,-11 47,-27 66,-47l0 -297c-5,-7 -12,-15 -21,-24 -9,-9 -20,-17 -32,-25 -12,-8 -26,-14 -42,-20 -15,-5 -32,-8 -51,-8 -27,0 -51,6 -72,17 -21,10 -39,26 -53,45 -14,20 -25,43 -32,70 -7,28 -11,58 -11,91zm157 -302c24,0 46,3 64,9 19,6 34,14 47,23 14,8 24,17 32,26 8,9 13,16 16,21l2 0 19 -65 70 0 0 601c0,43 -7,82 -21,114 -15,32 -35,59 -61,81 -26,21 -57,37 -93,48 -37,10 -77,16 -122,16 -37,0 -70,-4 -100,-10 -30,-7 -53,-15 -69,-24l0 -78c13,6 26,10 39,14 13,4 26,7 40,10 13,2 27,4 41,5 14,1 30,2 47,2 67,0 118,-16 153,-47 36,-31 53,-78 53,-142l0 -75 -2 0c-20,22 -43,39 -70,50 -27,11 -58,17 -93,17 -16,0 -33,-2 -51,-5 -18,-4 -37,-10 -55,-18 -18,-9 -36,-20 -53,-35 -16,-14 -31,-31 -44,-52 -13,-22 -23,-47 -31,-76 -7,-29 -11,-63 -11,-101 0,-53 7,-98 21,-137 15,-39 33,-71 57,-96 24,-26 50,-45 81,-57 30,-13 61,-19 94,-19z"/>
   <g>
    <polygon class="fil3" points="6949,2491 6949,1618 7008,1618 7008,2491 "/>
   </g>
   <path class="fil2" d="M7421 1854c7,-25 15,-52 25,-81l53 -151 80 0 0 317 -57 0 0 -161c0,-23 1,-51 3,-82l-2 0c-3,9 -6,19 -9,30 -4,12 -8,23 -12,34l-63 179 -37 0 -64 -179c-4,-11 -7,-22 -11,-34 -3,-11 -6,-21 -9,-30l-2 0c2,29 3,57 3,82l0 161 -57 0 0 -317 79 0 53 151c9,25 18,52 25,81l2 0zm197 -145l59 0 33 83c13,32 22,55 27,70l1 0c4,-11 12,-33 24,-65l35 -88 59 0 -144 340 -54 0 51 -123 -91 -217zm432 -87l0 268 144 0 0 49 -201 0 0 -317 57 0zm347 202c0,-12 -1,-23 -4,-32 -3,-10 -7,-17 -12,-24 -5,-6 -11,-11 -17,-14 -7,-3 -15,-5 -23,-5 -8,0 -15,2 -22,5 -7,3 -13,8 -18,14 -5,7 -9,14 -11,24 -3,9 -5,20 -5,32 0,12 2,23 5,32 2,9 6,17 11,23 5,7 11,11 18,15 7,3 14,4 22,4 8,0 16,-1 23,-4 7,-4 12,-8 17,-15 5,-6 9,-14 12,-23 3,-9 4,-20 4,-32zm57 0c0,18 -3,34 -8,49 -5,15 -13,28 -23,38 -10,11 -21,19 -35,25 -14,6 -30,9 -47,9 -17,0 -33,-3 -47,-9 -14,-6 -26,-14 -35,-25 -10,-10 -17,-23 -23,-38 -5,-15 -7,-31 -7,-49 0,-18 2,-35 7,-49 6,-15 13,-28 23,-38 10,-11 22,-19 35,-25 14,-6 30,-9 47,-9 17,0 33,3 47,9 14,6 26,14 36,25 9,10 17,23 22,38 5,14 8,31 8,49zm209 110c-7,3 -15,5 -25,7 -10,2 -21,4 -32,4 -16,0 -31,-3 -45,-8 -14,-4 -26,-11 -37,-21 -10,-10 -19,-22 -25,-37 -6,-15 -9,-32 -9,-52 0,-22 4,-41 11,-56 7,-16 16,-29 27,-39 11,-10 23,-17 37,-22 14,-4 27,-7 41,-7 10,0 19,1 29,3 9,2 17,4 25,8l0 45c-7,-3 -14,-5 -22,-7 -7,-2 -16,-3 -24,-3 -9,0 -18,2 -26,5 -8,2 -15,7 -21,13 -6,6 -11,14 -14,23 -4,10 -6,22 -6,36 0,10 2,20 4,29 3,8 7,16 12,22 6,7 12,12 21,16 8,3 18,5 29,5 10,0 19,-1 27,-2 8,-3 16,-5 23,-8l0 46zm179 -20l-1 0c-3,4 -6,7 -11,10 -4,4 -9,7 -14,10 -6,3 -12,6 -19,8 -7,2 -14,3 -22,3 -10,0 -20,-2 -30,-6 -9,-3 -17,-8 -23,-14 -7,-7 -12,-14 -16,-24 -4,-9 -6,-19 -6,-30 0,-12 3,-23 7,-33 4,-10 10,-18 18,-25 8,-7 17,-12 28,-16 11,-3 23,-5 37,-5 9,0 18,1 26,2 9,1 16,3 22,5l0 -10c0,-5 -1,-10 -3,-15 -2,-5 -4,-10 -8,-13 -4,-4 -9,-7 -16,-10 -6,-2 -14,-3 -23,-3 -11,0 -22,1 -33,4 -11,2 -23,6 -36,11l0 -44c11,-5 23,-9 36,-11 12,-3 26,-4 39,-5 17,0 31,2 43,6 13,5 23,10 31,17 8,8 15,16 19,26 4,10 6,20 6,32l0 86c0,16 0,29 0,40 1,10 1,20 1,29l-49 0 -3 -25zm-4 -73c-5,-1 -11,-3 -18,-4 -7,-1 -14,-1 -21,-1 -13,0 -24,3 -31,8 -8,5 -12,14 -12,25 0,5 1,10 3,14 1,4 4,7 7,9 3,3 6,5 10,6 4,1 9,2 13,2 6,0 11,-1 16,-2 5,-2 9,-4 13,-6 4,-2 8,-5 11,-8 4,-3 7,-5 9,-8l0 -35zm252 97c-6,2 -13,4 -22,5 -8,1 -16,2 -24,2 -18,0 -34,-4 -46,-10 -12,-6 -20,-15 -25,-27 -3,-8 -5,-19 -5,-34l0 -119 -42 0 0 -46 42 0 0 -64 55 0 0 64 64 0 0 46 -64 0 0 112c0,9 1,15 4,20 4,7 13,10 27,10 6,0 13,0 19,-1 6,-1 12,-2 17,-4l0 46zm44 -229l55 0 0 230 -55 0 0 -230zm-1 -113l58 0 0 60 -58 0 0 -60zm274 228c0,-12 -1,-23 -4,-32 -3,-10 -6,-17 -11,-24 -5,-6 -11,-11 -18,-14 -7,-3 -15,-5 -23,-5 -8,0 -15,2 -22,5 -7,3 -13,8 -18,14 -4,7 -8,14 -11,24 -3,9 -4,20 -4,32 0,12 1,23 4,32 3,9 7,17 12,23 5,7 10,11 17,15 7,3 15,4 23,4 8,0 15,-1 22,-4 7,-4 13,-8 18,-15 5,-6 8,-14 11,-23 3,-9 4,-20 4,-32zm57 0c0,18 -3,34 -8,49 -5,15 -12,28 -22,38 -10,11 -22,19 -36,25 -14,6 -29,9 -46,9 -18,0 -34,-3 -47,-9 -14,-6 -26,-14 -36,-25 -10,-10 -17,-23 -22,-38 -5,-15 -8,-31 -8,-49 0,-18 3,-35 8,-49 5,-15 13,-28 22,-38 10,-11 22,-19 36,-25 14,-6 29,-9 46,-9 18,0 34,3 48,9 14,6 25,14 35,25 10,10 17,23 22,38 5,14 8,31 8,49zm99 -83l1 0c3,-5 7,-9 12,-14 5,-5 10,-9 17,-12 6,-3 13,-6 20,-8 8,-3 16,-4 25,-4 8,0 16,1 24,3 7,2 14,5 20,9 7,4 12,9 17,16 5,6 9,14 12,23 1,5 2,10 3,16 0,5 1,12 1,20l0 149 -55 0 0 -141c0,-6 -1,-11 -1,-16 -1,-4 -1,-8 -3,-11 -2,-7 -6,-13 -12,-16 -6,-3 -13,-5 -20,-5 -11,0 -21,3 -31,8 -10,5 -18,13 -26,23l0 158 -55 0 0 -230 46 0 5 32zm-2142 577c7,-25 15,-52 25,-80l53 -152 80 0 0 317 -57 0 0 -160c0,-24 1,-51 3,-82l-2 0c-3,9 -6,19 -9,30 -4,11 -8,22 -12,33l-63 179 -37 0 -64 -179c-4,-11 -7,-22 -11,-33 -3,-11 -6,-21 -9,-30l-2 0c2,29 3,56 3,81l0 161 -57 0 0 -317 79 0 53 151c9,25 18,52 25,81l2 0zm197 -144l59 0 33 83c13,31 22,55 27,70l1 0c4,-12 12,-34 24,-66l35 -87 59 0 -144 339 -54 0 51 -123 -91 -216zm469 229l-56 0 0 -268 -100 0 0 -49 256 0 0 49 -100 0 0 268zm138 -229l54 0 0 229 -54 0 0 -229zm-2 -114l58 0 0 61 -58 0 0 -61zm406 203c0,-5 0,-9 0,-14 -1,-4 -1,-8 -2,-11 -2,-7 -5,-12 -10,-17 -5,-4 -12,-6 -21,-6 -5,0 -9,1 -15,2 -5,1 -10,3 -15,6 -5,3 -10,6 -14,10 -5,3 -9,7 -12,12l0 158 -55 0 0 -140c0,-5 0,-9 -1,-14 0,-4 -1,-8 -1,-11 -2,-7 -5,-12 -10,-17 -5,-4 -12,-6 -21,-6 -5,0 -10,1 -15,2 -5,1 -10,3 -15,6 -5,3 -10,6 -14,10 -5,3 -9,7 -13,12l0 158 -54 0 0 -229 45 0 5 31 1 0c3,-4 7,-9 12,-14 5,-4 11,-8 17,-12 6,-3 13,-6 21,-8 7,-2 15,-3 23,-3 15,0 28,3 40,10 12,7 21,17 27,31l1 0c4,-6 9,-12 14,-17 6,-5 12,-9 18,-13 7,-3 13,-6 21,-8 7,-2 15,-3 24,-3 16,0 29,3 40,10 11,7 19,16 25,28 2,3 3,6 4,9 1,4 2,8 3,12 1,5 1,10 1,15 1,6 1,12 1,19l0 142 -55 0 0 -140zm230 101c11,0 22,-1 33,-3 12,-3 24,-6 35,-10l0 45c-7,3 -18,6 -32,9 -15,3 -30,4 -46,4 -16,0 -31,-2 -45,-6 -14,-5 -26,-11 -37,-21 -11,-9 -19,-21 -26,-36 -6,-15 -9,-33 -9,-54 0,-21 3,-39 9,-55 6,-15 14,-28 23,-38 10,-11 22,-18 34,-24 13,-5 26,-7 40,-7 14,0 27,2 39,6 12,5 22,12 31,21 9,10 15,22 20,37 5,15 8,32 8,53 -1,7 -1,14 -1,20l-147 0c1,10 3,19 7,27 4,7 9,14 15,18 6,5 14,8 22,11 8,2 17,3 27,3zm-22 -153c-7,0 -13,2 -18,4 -6,3 -10,6 -14,11 -4,4 -7,10 -10,16 -2,6 -4,12 -4,19l88 0c0,-7 -1,-13 -3,-19 -2,-6 -4,-12 -8,-16 -3,-5 -8,-8 -13,-11 -5,-2 -11,-4 -18,-4z"/>
   <line class="fil4 str0" x1="1958" y1="2690" x2="9715" y2= "2690" />
   <path class="fil0" d="M9977 0c31,0 61,8 90,24 29,15 52,38 69,67 16,30 24,60 24,92 0,31 -8,62 -24,91 -16,29 -39,51 -68,67 -29,17 -59,25 -91,25 -31,0 -62,-8 -91,-25 -29,-16 -51,-38 -67,-67 -17,-29 -25,-60 -25,-91 0,-32 9,-62 25,-92 16,-29 39,-52 68,-67 30,-16 60,-24 90,-24zm0 30c-25,0 -50,7 -75,20 -24,13 -43,32 -57,56 -13,25 -20,50 -20,77 0,26 6,51 20,76 13,24 32,43 56,56 25,14 50,20 76,20 27,0 52,-6 76,-20 24,-13 43,-32 57,-56 13,-25 20,-50 20,-76 0,-27 -7,-52 -21,-77 -13,-24 -32,-43 -57,-56 -24,-13 -49,-20 -75,-20zm-80 254l0 -197 68 0c23,0 40,2 50,6 10,3 19,10 25,19 6,9 9,18 9,29 0,14 -5,26 -16,37 -10,11 -23,17 -41,18 7,3 13,6 17,10 8,8 18,21 29,39l24 39 -38 0 -18 -31c-14,-25 -25,-40 -33,-46 -6,-4 -14,-7 -25,-7l-19 0 0 84 -32 0zm32 -111l38 0c19,0 31,-3 38,-8 7,-5 10,-13 10,-22 0,-5 -2,-11 -5,-15 -3,-5 -7,-8 -13,-11 -6,-2 -16,-3 -32,-3l-36 0 0 59z"/>
   <path class="fil0" d="M1958 2947l88 0 0 159 124 -159 106 0 -161 205 177 255 -104 0 -142 -205 0 205 -88 0 0 -460zm399 250l158 0 0 80 -158 0 0 -80zm319 -250l131 0 0 460 -87 0 0 -378 -95 0 51 -82zm365 148l-86 0c3,-49 18,-88 47,-117 29,-28 66,-43 111,-43 28,0 53,6 74,18 22,12 39,29 52,51 12,22 19,45 19,68 0,27 -8,56 -23,88 -16,31 -45,69 -86,112l-51 54 164 0 0 81 -319 0 0 -42 142 -145c34,-35 57,-63 69,-84 11,-21 17,-40 17,-57 0,-18 -6,-33 -18,-44 -12,-12 -27,-18 -45,-18 -19,0 -35,7 -47,21 -13,14 -19,33 -20,57zm695 -160c65,0 121,24 168,71 47,47 70,105 70,172 0,67 -23,124 -69,171 -46,46 -102,69 -168,69 -69,0 -126,-24 -172,-71 -46,-48 -68,-105 -68,-170 0,-44 10,-85 31,-122 22,-36 51,-66 88,-87 37,-22 78,-33 120,-33zm-1 86c-42,0 -78,15 -107,45 -29,29 -43,67 -43,112 0,51 18,91 55,121 28,23 60,35 97,35 41,0 76,-15 105,-45 29,-30 44,-67 44,-111 0,-44 -15,-81 -44,-111 -29,-31 -65,-46 -107,-46zm323 -74l83 0 198 303 0 -303 87 0 0 460 -83 0 -198 -302 0 302 -87 0 0 -460zm473 0l87 0 0 376 128 0 0 84 -215 0 0 -460zm276 0l87 0 0 460 -87 0 0 -460zm186 0l83 0 198 303 0 -303 87 0 0 460 -84 0 -197 -302 0 302 -87 0 0 -460zm474 0l251 0 0 86 -164 0 0 82 164 0 0 85 -164 0 0 121 164 0 0 86 -251 0 0 -460zm753 62l-65 58c-23,-32 -46,-48 -70,-48 -11,0 -21,3 -28,9 -7,7 -11,14 -11,21 0,8 3,15 8,22 7,9 29,29 64,59 34,28 54,46 61,53 18,18 30,35 38,51 7,17 11,35 11,54 0,38 -13,69 -39,93 -26,25 -60,37 -102,37 -33,0 -62,-8 -86,-24 -24,-16 -45,-41 -62,-75l73 -45c23,41 48,61 77,61 15,0 28,-4 38,-13 10,-9 15,-19 15,-30 0,-11 -4,-21 -11,-32 -8,-10 -25,-26 -52,-48 -50,-40 -82,-72 -97,-94 -14,-22 -22,-44 -22,-66 0,-32 12,-60 37,-82 24,-23 54,-35 90,-35 23,0 45,6 65,16 21,11 43,30 68,58zm514 19l-61 58c-42,-44 -89,-66 -141,-66 -44,0 -81,15 -111,45 -31,30 -46,67 -46,111 0,30 7,58 20,81 14,24 33,43 57,56 24,14 52,21 81,21 26,0 49,-5 70,-14 21,-10 44,-27 70,-52l59 62c-34,33 -66,56 -96,69 -30,13 -65,19 -104,19 -71,0 -130,-22 -175,-68 -46,-45 -69,-103 -69,-174 0,-46 11,-86 31,-122 21,-36 51,-64 90,-86 38,-22 80,-33 125,-33 37,0 74,8 109,24 35,16 66,39 91,69zm76 -81l89 0 0 173 154 0 0 -173 88 0 0 460 -88 0 0 -202 -154 0 0 202 -89 0 0 -460zm653 -12c65,0 121,24 168,71 47,47 70,105 70,172 0,67 -23,124 -69,171 -46,46 -102,69 -168,69 -69,0 -127,-24 -172,-71 -46,-48 -69,-105 -69,-170 0,-44 11,-85 32,-122 21,-36 51,-66 88,-87 37,-22 77,-33 120,-33zm-1 86c-43,0 -78,15 -107,45 -29,29 -43,67 -43,112 0,51 18,91 54,121 29,23 61,35 97,35 42,0 77,-15 106,-45 29,-30 44,-67 44,-111 0,-44 -15,-81 -44,-111 -30,-31 -65,-46 -107,-46zm539 -86c65,0 121,24 168,71 47,47 70,105 70,172 0,67 -23,124 -69,171 -46,46 -102,69 -168,69 -69,0 -127,-24 -172,-71 -46,-48 -69,-105 -69,-170 0,-44 11,-85 32,-122 21,-36 51,-66 88,-87 37,-22 77,-33 120,-33zm-1 86c-43,0 -78,15 -107,45 -29,29 -43,67 -43,112 0,51 18,91 54,121 28,23 61,35 97,35 42,0 77,-15 106,-45 29,-30 44,-67 44,-111 0,-44 -15,-81 -44,-111 -30,-31 -65,-46 -107,-46zm321 -74l88 0 0 376 128 0 0 84 -216 0 0 -460zm277 0l87 0 0 460 -87 0 0 -460zm186 0l83 0 198 303 0 -303 87 0 0 460 -84 0 -197 -302 0 302 -87 0 0 -460zm898 75l-62 61c-39,-41 -84,-62 -136,-62 -45,0 -83,15 -113,45 -31,30 -46,67 -46,109 0,45 16,82 47,113 32,31 71,46 117,46 31,0 56,-6 77,-19 21,-12 37,-32 50,-59l-133 0 0 -82 231 0 1 19c0,40 -11,78 -31,114 -21,36 -48,64 -81,83 -34,19 -73,28 -117,28 -48,0 -91,-10 -128,-31 -38,-21 -67,-50 -89,-88 -22,-39 -33,-80 -33,-125 0,-60 21,-113 61,-158 48,-54 110,-81 186,-81 40,0 78,8 113,23 29,12 58,34 86,64z"/>
  </g>
 </g>
</svg>
