<svg width="12" height="12" viewBox="0 0 12 12" fill="none" xmlns="http://www.w3.org/2000/svg">
<path opacity="0.4" d="M3.24707 7.29064L4.75297 5.33346L6.47071 6.68277L7.9444 4.78082" stroke="#0179FD" stroke-linecap="round" stroke-linejoin="round"/>
<path d="M9.66241 2.93419C10.1965 2.93419 10.6295 2.5012 10.6295 1.96709C10.6295 1.43298 10.1965 1 9.66241 1C9.12829 1 8.69531 1.43298 8.69531 1.96709C8.69531 2.5012 9.12829 2.93419 9.66241 2.93419Z" stroke="#0179FD" stroke-linecap="round" stroke-linejoin="round"/>
<path d="M7.11108 1.42358H3.45457C1.93946 1.42358 1 2.49659 1 4.0117V8.07811C1 9.5932 1.92104 10.6616 3.45457 10.6616H7.78345C9.29859 10.6616 10.238 9.5932 10.238 8.07811V4.5367" stroke="#0179FD" stroke-linecap="round" stroke-linejoin="round"/>
</svg>
