<svg width="9" height="13" viewBox="0 0 9 13" fill="none" xmlns="http://www.w3.org/2000/svg">
<path d="M2.59082 1.68677C2.94915 1.6508 3.30274 1.86456 3.4502 2.19653L3.5 2.34595C3.5102 2.38985 3.5148 2.43614 3.51758 2.48755L3.52148 2.6604C3.52473 3.01072 3.52246 3.35938 3.52246 3.7395V4.04224L3.8125 3.95532C4.12997 3.86037 4.37663 3.86696 4.56836 3.94653C4.75812 4.0254 4.92878 4.19025 5.06641 4.47974L5.14258 4.64087L5.31738 4.60278C5.83896 4.48922 6.13726 4.53105 6.31543 4.65845C6.4918 4.78461 6.62025 5.04521 6.66797 5.55786L6.68848 5.77173L6.90234 5.76196C7.01485 5.75699 7.14706 5.74254 7.24121 5.7356C7.29351 5.73174 7.34203 5.72958 7.3877 5.72974L7.51758 5.73853C7.87392 5.79138 8.13646 6.04794 8.19922 6.38208L8.21289 6.52954C8.21985 7.18153 8.23067 7.82888 8.2207 8.47388L8.20312 9.11841C8.13845 10.704 6.89412 12.1872 5.3291 12.6243L5.0127 12.6975C4.87907 12.7219 4.74309 12.7493 4.61426 12.7747H3.84375C3.65154 12.7248 3.44517 12.6815 3.2666 12.6389C3.11881 12.6037 2.97908 12.5655 2.84766 12.5178L2.71875 12.467C1.93884 12.1252 1.34596 11.6593 0.936523 11.0764C0.578361 10.5665 0.353641 9.95708 0.272461 9.24438L0.246094 8.93286C0.226193 8.56244 0.223256 8.19229 0.225586 7.81958L0.237305 6.69067C0.238941 6.33838 0.379868 6.07959 0.582031 5.93091C0.759236 5.80074 1.00402 5.74055 1.29004 5.79517L1.41504 5.82544C1.44348 5.83387 1.47624 5.84227 1.51465 5.85278L1.79883 5.93091V5.40552L1.80176 2.52173C1.80515 2.14224 2.06193 1.82138 2.42773 1.71704L2.59082 1.68677ZM3.36426 6.90454C3.35991 5.92969 3.3623 4.95478 3.3623 3.97876V2.57739C3.36265 2.44313 3.33576 2.30935 3.2666 2.1897C3.21391 2.09856 3.14088 2.02413 3.05176 1.96606L2.95801 1.91333C2.72012 1.80118 2.46567 1.83062 2.27246 1.96704C2.10523 2.08516 1.9945 2.27483 1.96875 2.49634L1.96289 2.59302C1.96029 3.29353 1.96146 3.9946 1.96191 4.69458L1.96094 4.6936V5.2356L1.95898 7.8772V7.87817C1.95897 7.91775 1.95692 7.95082 1.95312 7.97778L1.9375 8.04028C1.93237 8.05167 1.92706 8.0575 1.9248 8.05981C1.92278 8.06184 1.92092 8.06284 1.91895 8.06372L1.86426 8.0647C1.82676 8.05703 1.81671 8.04417 1.81445 8.04126C1.81264 8.03885 1.80962 8.03343 1.80664 8.02368L1.80078 7.97778L1.79785 6.65649C1.79606 6.47406 1.74104 6.30384 1.63086 6.17212C1.5476 6.07259 1.43887 6.00198 1.31543 5.96411L1.1875 5.93774C0.978068 5.91266 0.777672 5.96982 0.628906 6.10571C0.517858 6.20728 0.446453 6.34293 0.416992 6.49536L0.401367 6.65356C0.398918 7.0159 0.39662 7.37898 0.396484 7.74243L0.404297 8.83325C0.407326 9.03536 0.424908 9.24026 0.458008 9.44165L0.496094 9.64185C0.888151 11.4343 2.52895 12.6723 4.39355 12.6116L4.39453 12.6125C6.12446 12.5562 7.68524 11.2652 7.96973 9.55298L7.99414 9.38599C8.10437 8.43272 8.04519 7.44748 8.04785 6.51978L8.04395 6.44751C8.00932 6.14233 7.75336 5.93266 7.48145 5.88306L7.35547 5.87134C7.0381 5.87287 6.76374 6.09094 6.68359 6.3938L6.66211 6.52856C6.65547 6.62703 6.66203 6.73303 6.66406 6.80591C6.6652 6.84702 6.66488 6.88225 6.66309 6.91333L6.65137 6.99536C6.65067 6.99786 6.64868 7.00622 6.6416 7.0188C6.63424 7.03185 6.62393 7.04647 6.6123 7.05981C6.60339 7.07002 6.59353 7.07698 6.58594 7.08325C6.5823 7.08192 6.57783 7.08132 6.57324 7.07935C6.54964 7.06919 6.52487 7.05377 6.50293 7.03833L6.49805 6.9436V6.94263L6.49609 6.16235L6.49414 5.37817V5.3772L6.47852 5.23267C6.42314 4.95285 6.21891 4.73956 5.94531 4.68188L5.80371 4.66626C5.45519 4.662 5.18972 4.89328 5.11719 5.21509L5.09863 5.35864C5.09347 5.4798 5.0957 5.60542 5.0957 5.71313C5.0957 6.03919 5.10207 6.35509 5.09668 6.66919L5.08691 6.98267C5.08674 6.98413 5.08613 6.99075 5.08203 7.0022C5.07742 7.01503 5.07012 7.03068 5.06055 7.04614C5.04762 7.06698 5.03194 7.07897 5.02246 7.08813C5.01846 7.08779 5.01376 7.08894 5.00879 7.08813C4.99405 7.08571 4.97985 7.08145 4.96973 7.07739L4.96777 7.07642C4.96402 7.06935 4.95967 7.05804 4.95508 7.04321L4.93848 6.93872V6.93774L4.93359 4.82544C4.93281 4.61303 4.87146 4.41583 4.74414 4.2688C4.61402 4.11872 4.42934 4.03873 4.22363 4.04028C4.0183 4.04185 3.8357 4.12341 3.70801 4.27563C3.6147 4.38689 3.55894 4.5256 3.53613 4.677L3.52441 4.83228L3.52344 5.99146V5.99243L3.52148 7.02661C3.52121 7.06484 3.51131 7.08347 3.50781 7.08911C3.50696 7.0892 3.50603 7.09003 3.50488 7.09009L3.43066 7.07349C3.40502 7.06329 3.38665 7.04909 3.37402 7.03931C3.37323 7.03579 3.37193 7.03164 3.37109 7.02661C3.36575 6.99431 3.36426 6.95287 3.36426 6.90552V6.90454Z" fill="#0179FD" stroke="#0179FD" stroke-width="0.450413"/>
<path d="M2.70825 0.225586C3.72427 0.231711 4.61157 1.02962 4.74146 2.04199L4.75708 2.24707C4.75885 2.31985 4.74121 2.35606 4.73071 2.37012C4.72358 2.37954 4.71257 2.39031 4.68188 2.39258L4.64478 2.38867C4.63648 2.38568 4.6315 2.38123 4.62817 2.37793C4.62427 2.37405 4.61766 2.36545 4.61157 2.34961L4.59888 2.27734C4.58768 1.49691 4.06448 0.756008 3.28149 0.489258L3.12134 0.442383C2.02987 0.173286 0.939997 0.904262 0.75708 1.9834L0.732666 2.2041C0.73008 2.25731 0.731536 2.26534 0.72876 2.28711C0.722467 2.33515 0.704354 2.36214 0.690674 2.375C0.67826 2.38656 0.663004 2.39366 0.640869 2.39258L0.607666 2.38477C0.599896 2.38111 0.594626 2.37703 0.591064 2.37305C0.587044 2.36848 0.580932 2.36004 0.576416 2.34668L0.56958 2.29102C0.578978 1.63954 0.838814 1.11227 1.34302 0.696289C1.72229 0.384501 2.1666 0.235078 2.70825 0.225586Z" fill="#0179FD" stroke="#0179FD" stroke-width="0.450413"/>
</svg>
