<svg width="12" height="9" viewBox="0 0 12 9" fill="none" xmlns="http://www.w3.org/2000/svg">
<path d="M10.3356 0C10.6775 0.0676692 10.9781 0.169173 11.2561 0.379699C11.6731 0.695489 11.9098 1.15414 12 1.66541V7.33835C11.8723 8.22932 11.1772 8.91729 10.2755 9.00376H1.74327C0.819036 8.92857 0.086412 8.20301 0 7.28196V1.7218C0.0676268 0.860902 0.796493 0.0864662 1.66437 0H10.3356ZM1.72824 0.755639C1.20601 0.830827 0.811522 1.24436 0.747652 1.77068V7.22932C0.815279 7.78947 1.24734 8.20677 1.8109 8.25188C4.67376 8.22556 7.54415 8.29699 10.4033 8.21805C10.8804 8.08647 11.211 7.68421 11.2486 7.18797C11.226 5.32707 11.2937 3.45489 11.2148 1.59774C11.087 1.13158 10.6888 0.800752 10.2079 0.755639L1.72824 0.763158V0.755639Z" fill="#007FFF"/>
<path d="M1.79973 1.50375C1.91244 1.48495 2.02515 1.50375 2.11157 1.57894L5.99259 5.45488L9.90368 1.56766C10.2493 1.32706 10.6626 1.72555 10.4409 2.0827L8.04018 4.50751L10.4297 6.90225C10.6739 7.24811 10.2719 7.66164 9.91495 7.43984L7.50668 5.04134L6.22177 6.3045C6.08652 6.39849 5.90994 6.40225 5.77468 6.3045L4.48977 5.04134L2.09654 7.42856C1.75089 7.66916 1.33761 7.27067 1.55928 6.91352L3.96003 4.50751L1.55928 2.0827C1.41276 1.86841 1.54049 1.5451 1.79973 1.50375Z" fill="#007FFF"/>
</svg>
