<svg width="11" height="12" viewBox="0 0 11 12" fill="none" xmlns="http://www.w3.org/2000/svg">
<path d="M0.234687 5.76268C0.23443 6.69412 0.477805 7.60359 0.940578 8.40522L0.19043 11.1441L2.99337 10.4092C3.76863 10.8312 4.63724 11.0524 5.51993 11.0524H5.52225C8.43618 11.0524 10.8082 8.68129 10.8094 5.76685C10.81 4.3546 10.2605 3.02661 9.26216 2.0275C8.264 1.02847 6.93648 0.478 5.52204 0.477356C2.60777 0.477356 0.235934 2.84837 0.23473 5.76268" fill="#0179FD"/>
<path d="M0.0459766 5.76104C0.0456758 6.72599 0.297773 7.66799 0.777047 8.49832L0 11.3354L2.90344 10.5741C3.70343 11.0103 4.60414 11.2403 5.52067 11.2406H5.52303C8.5415 11.2406 10.9987 8.78419 11 5.76542C11.0005 4.30242 10.4313 2.92669 9.39727 1.89179C8.36314 0.857016 6.98814 0.286734 5.52303 0.286133C2.50405 0.286133 0.0471797 2.74223 0.0459766 5.76104ZM1.77508 8.35532L1.66667 8.18323C1.21095 7.45861 0.970406 6.62123 0.97075 5.76138C0.971695 3.25222 3.01374 1.21082 5.52475 1.21082C6.74077 1.21134 7.88356 1.68537 8.74311 2.54543C9.60261 3.40558 10.0756 4.54898 10.0753 5.76508C10.0742 8.27424 8.03206 10.3159 5.52303 10.3159H5.52123C4.70426 10.3155 3.90302 10.0961 3.20427 9.68146L3.03798 9.58285L1.31502 10.0346L1.77508 8.35532Z" fill="#99C9FE"/>
<path d="M4.15409 3.47219C4.05157 3.24432 3.94367 3.23972 3.84618 3.23573C3.76634 3.23229 3.67508 3.23255 3.5839 3.23255C3.49263 3.23255 3.34435 3.26688 3.21901 3.40374C3.09354 3.54072 2.73999 3.87175 2.73999 4.54503C2.73999 5.21831 3.23039 5.86902 3.29876 5.96042C3.36721 6.05164 4.24549 7.47752 5.63647 8.02605C6.7925 8.48191 7.02776 8.39125 7.27865 8.36839C7.52959 8.34561 8.08835 8.03744 8.20235 7.71788C8.31643 7.39837 8.31643 7.12448 8.28223 7.06725C8.24802 7.01023 8.15676 6.97598 8.0199 6.90758C7.88305 6.83917 7.2102 6.50806 7.08477 6.46238C6.95931 6.41675 6.86808 6.39397 6.77682 6.531C6.68555 6.66781 6.42349 6.97598 6.34361 7.06725C6.26381 7.15873 6.18393 7.17012 6.04712 7.10167C5.91018 7.033 5.46945 6.88867 4.94656 6.4225C4.53974 6.05976 4.26508 5.61181 4.18524 5.47479C4.10541 5.33797 4.17669 5.26381 4.24531 5.19562C4.3068 5.1343 4.38221 5.03582 4.4507 4.95594C4.51894 4.87602 4.54171 4.819 4.58735 4.72773C4.63302 4.63638 4.61016 4.55646 4.576 4.48801C4.54171 4.41956 4.27578 3.74276 4.15409 3.47219Z" fill="#99C9FE"/>
</svg>
