<?xml version="1.0" encoding="UTF-8"?>
<svg id="Layer_2" xmlns="http://www.w3.org/2000/svg" width="400" height="58" viewBox="0 0 400 57.97"><defs><style>.cls-1{fill:#00c7b3;}.cls-2{fill:#eaeaea;}</style></defs><g id="Layer_1-2"><g><path class="cls-1" d="M38.94,38.94l10.53,10.54c-5.24,5.24-12.48,8.49-20.48,8.49C12.98,57.97,0,44.99,0,28.99S12.98,0,28.99,0C36.99,0,44.23,3.25,49.47,8.49l-10.53,10.54c-2.55-2.55-6.07-4.13-9.95-4.13-7.78,0-14.08,6.3-14.08,14.08s6.3,14.08,14.08,14.08c3.88,0,7.4-1.57,9.95-4.13Z"/><g><path class="cls-1" d="M139,7.96S144.81,0,155.28,0c12.79,0,22.1,9.09,22.1,24.43V56.83h-15.7V26.15c0-6.82-4.65-11.37-11.05-11.37-6.98,0-11.63,4.55-11.63,13.07v28.98h-15.7V1.14h15.7V7.96Z"/><path class="cls-1" d="M203.57,56.83L182.05,1.14h16.28l13.38,36.94L225.09,1.14h16.28l-21.52,55.69h-16.28Z"/><path class="cls-1" d="M259.41,34.1c1.16,5.68,6.4,10.8,15.12,10.8,9.89,0,15.12-6.82,15.12-6.82l8.14,10.23s-8.72,9.66-24.43,9.66c-16.87,0-30.24-13.07-30.24-28.98S256.5,0,272.79,0s28.5,11.93,28.5,27.84c0,3.98-.58,6.25-.58,6.25h-41.29Zm0-10.8h26.17c-1.16-5.68-5.82-10.23-12.79-10.23s-11.63,4.55-13.38,10.23Z"/><path class="cls-1" d="M346.49,15.92s-1.74-.57-5.23-.57c-8.14,0-13.38,5.11-13.38,14.77v26.71h-15.7V1.14h15.7V7.96s5.82-7.39,16.28-7.39h2.33V15.92Z"/><path class="cls-1" d="M384.3,51.15s-5.82,6.82-15.7,6.82c-11.63,0-19.19-7.39-19.19-15.91,0-9.09,6.4-15.46,16.87-17.27l18.03-3.18c0-4.55-3.49-7.96-9.89-7.96-8.72,0-12.79,5.68-12.79,5.68l-8.72-8.52S360.45,0,375.57,0s24.43,9.66,24.43,22.16V56.83h-15.7v-5.68Zm0-18.18v-1.7l-12.8,2.27c-4.07,.68-6.4,2.84-6.4,6.25s2.33,5.68,7.56,5.68c6.98,0,11.63-4.55,11.63-12.5Z"/></g><g><path class="cls-1" d="M88.25,57.61c-4.07,.64-7.88-2.14-8.52-6.19-.64-4.07,2.13-7.88,6.19-8.52,7.67-1.21,12.9-8.43,11.69-16.11-1.21-7.67-8.43-12.92-16.1-11.7,4.06-.65,6.83-4.47,6.18-8.52-.64-4.07-4.46-6.84-8.51-6.2,15.8-2.5,30.65,8.28,33.15,24.1,2.5,15.81-8.29,30.65-24.09,33.15Z"/><path class="cls-2" d="M88.25,57.61c-15.81,2.5-30.66-8.28-33.16-24.09C52.59,17.71,63.36,2.86,79.18,.36c4.06-.64,7.87,2.14,8.51,6.2,.65,4.06-2.13,7.87-6.18,8.52-7.68,1.21-12.92,8.43-11.7,16.11,1.21,7.68,8.42,12.91,16.11,11.7-4.07,.64-6.83,4.46-6.19,8.52,.64,4.06,4.46,6.83,8.52,6.19Z"/></g></g></g></svg>