<?xml version="1.0" encoding="utf-8"?>
<!-- Generator: Adobe Illustrator 15.0.0, SVG Export Plug-In . SVG Version: 6.00 Build 0)  -->
<!DOCTYPE svg PUBLIC "-//W3C//DTD SVG 1.1//EN" "http://www.w3.org/Graphics/SVG/1.1/DTD/svg11.dtd">
<svg version="1.1" id="Layer_1" xmlns="http://www.w3.org/2000/svg" xmlns:xlink="http://www.w3.org/1999/xlink" x="0px" y="0px"
	 width="368.64px" height="107.04px" viewBox="0 0 368.64 107.04" enable-background="new 0 0 368.64 107.04" xml:space="preserve">
<g>
	<path fill-rule="evenodd" clip-rule="evenodd" fill="#fff" d="M95.144,37.491V11.184h5.371v26.307H95.144L95.144,37.491z
		 M123.071,37.491h-5.074v-9.719c0-2.056-0.111-3.385-0.327-3.985c-0.224-0.606-0.575-1.071-1.068-1.409
		c-0.495-0.336-1.087-0.501-1.779-0.501c-0.889,0-1.686,0.238-2.389,0.716c-0.71,0.479-1.192,1.116-1.452,1.898
		c-0.264,0.79-0.394,2.247-0.394,4.379v8.622h-5.077V18.422h4.706v2.798c1.687-2.137,3.803-3.203,6.367-3.203
		c1.124,0,2.155,0.203,3.088,0.601c0.938,0.403,1.642,0.913,2.117,1.531c0.483,0.625,0.815,1.329,1.001,2.118
		c0.192,0.79,0.283,1.917,0.283,3.387V37.491L123.071,37.491z M136.997,18.422v4.005h-3.483v7.723c0,1.567,0.032,2.479,0.1,2.736
		c0.067,0.257,0.215,0.472,0.457,0.643c0.235,0.165,0.519,0.251,0.858,0.251c0.476,0,1.154-0.16,2.05-0.484l0.428,3.919
		c-1.181,0.502-2.514,0.753-4.009,0.753c-0.915,0-1.735-0.153-2.471-0.458c-0.733-0.307-1.272-0.705-1.612-1.188
		c-0.346-0.491-0.579-1.146-0.715-1.979c-0.105-0.587-0.16-1.775-0.16-3.57v-8.346h-2.335v-4.005h2.335v-3.784l5.074-2.977v6.761
		H136.997L136.997,18.422z M151.67,31.466l5.076,0.845c-0.647,1.843-1.68,3.246-3.081,4.212c-1.408,0.961-3.168,1.445-5.274,1.445
		c-3.341,0-5.816-1.083-7.416-3.251c-1.267-1.739-1.902-3.931-1.902-6.583c0-3.16,0.834-5.641,2.494-7.429
		c1.663-1.794,3.767-2.688,6.312-2.688c2.852,0,5.107,0.938,6.763,2.812c1.647,1.873,2.438,4.746,2.363,8.615h-12.708
		c0.037,1.495,0.445,2.659,1.229,3.491c0.779,0.833,1.754,1.25,2.915,1.25c0.796,0,1.462-0.214,2.001-0.644
		C150.985,33.112,151.393,32.42,151.67,31.466L151.67,31.466z M151.966,26.358c-0.038-1.463-0.413-2.578-1.137-3.337
		c-0.721-0.765-1.599-1.145-2.636-1.145c-1.105,0-2.019,0.403-2.742,1.207c-0.723,0.802-1.075,1.898-1.062,3.275H151.966
		L151.966,26.358z M166.014,37.491h-5.074V18.422h4.705v2.708c0.81-1.281,1.538-2.12,2.187-2.518
		c0.649-0.397,1.382-0.594,2.204-0.594c1.161,0,2.279,0.319,3.353,0.95l-1.574,4.397c-0.859-0.551-1.656-0.827-2.391-0.827
		c-0.716,0-1.322,0.195-1.815,0.582c-0.495,0.392-0.883,1.09-1.167,2.106c-0.284,1.018-0.427,3.147-0.427,6.387V37.491
		L166.014,37.491z M193.068,37.491h-5.076v-9.719c0-2.056-0.111-3.385-0.327-3.985c-0.223-0.606-0.574-1.071-1.069-1.409
		c-0.494-0.336-1.085-0.501-1.778-0.501c-0.889,0-1.686,0.238-2.388,0.716c-0.712,0.479-1.193,1.116-1.454,1.898
		c-0.264,0.79-0.394,2.247-0.394,4.379v8.622h-5.077V18.422h4.707v2.798c1.685-2.137,3.802-3.203,6.365-3.203
		c1.124,0,2.156,0.203,3.089,0.601c0.938,0.403,1.643,0.913,2.117,1.531c0.482,0.625,0.815,1.329,1,2.118
		c0.192,0.79,0.285,1.917,0.285,3.387V37.491L193.068,37.491z M201.99,24.301l-4.593-0.809c0.519-1.862,1.413-3.241,2.68-4.133
		c1.266-0.894,3.149-1.342,5.643-1.342c2.268,0,3.959,0.265,5.07,0.797c1.106,0.532,1.891,1.207,2.34,2.027
		c0.452,0.82,0.682,2.321,0.682,4.513l-0.075,5.879c0,1.672,0.08,2.91,0.241,3.704c0.161,0.797,0.464,1.648,0.906,2.554h-5.038
		c-0.131-0.331-0.297-0.82-0.488-1.469c-0.081-0.3-0.143-0.496-0.179-0.589c-0.864,0.846-1.791,1.477-2.777,1.899
		c-0.989,0.422-2.04,0.637-3.156,0.637c-1.97,0-3.526-0.533-4.663-1.598c-1.136-1.059-1.704-2.407-1.704-4.036
		c0-1.071,0.259-2.032,0.777-2.878c0.52-0.838,1.242-1.487,2.181-1.935c0.933-0.446,2.279-0.839,4.039-1.176
		c2.37-0.441,4.02-0.856,4.935-1.236V24.6c0-0.979-0.242-1.677-0.724-2.1c-0.487-0.417-1.402-0.625-2.741-0.625
		c-0.909,0-1.611,0.177-2.118,0.539C202.714,22.77,202.306,23.4,201.99,24.301L201.99,24.301z M208.81,28.379
		c-0.649,0.213-1.681,0.471-3.095,0.771c-1.408,0.3-2.334,0.594-2.768,0.875c-0.659,0.472-0.993,1.059-0.993,1.776
		c0,0.71,0.266,1.317,0.796,1.83c0.531,0.515,1.204,0.772,2.024,0.772c0.915,0,1.793-0.301,2.627-0.895
		c0.611-0.458,1.018-1.011,1.209-1.672c0.13-0.429,0.199-1.25,0.199-2.455V28.379L208.81,28.379z M227.599,18.422v4.005h-3.481
		v7.723c0,1.567,0.03,2.479,0.098,2.736c0.068,0.257,0.217,0.472,0.457,0.643c0.236,0.165,0.519,0.251,0.859,0.251
		c0.477,0,1.154-0.16,2.049-0.484l0.428,3.919c-1.18,0.502-2.514,0.753-4.009,0.753c-0.914,0-1.734-0.153-2.47-0.458
		c-0.734-0.307-1.272-0.705-1.611-1.188c-0.348-0.491-0.58-1.146-0.718-1.979c-0.103-0.587-0.159-1.775-0.159-3.57v-8.346h-2.334
		v-4.005h2.334v-3.784l5.076-2.977v6.761H227.599L227.599,18.422z M231.157,15.85v-4.666h5.075v4.666H231.157L231.157,15.85z
		 M231.157,37.491V18.422h5.075v19.069H231.157L231.157,37.491z M240.265,27.724c0-1.679,0.414-3.301,1.248-4.869
		c0.832-1.573,2.013-2.768,3.538-3.594c1.524-0.827,3.223-1.244,5.106-1.244c2.909,0,5.286,0.938,7.145,2.812
		c1.859,1.88,2.784,4.244,2.784,7.11c0,2.891-0.937,5.284-2.809,7.182c-1.878,1.898-4.236,2.848-7.082,2.848
		c-1.761,0-3.439-0.398-5.039-1.188c-1.594-0.79-2.812-1.947-3.644-3.478C240.679,31.778,240.265,29.916,240.265,27.724
		L240.265,27.724z M245.489,27.994c0,1.892,0.45,3.343,1.353,4.348c0.907,1.009,2.02,1.512,3.347,1.512
		c1.321,0,2.434-0.503,3.329-1.512c0.894-1.004,1.346-2.468,1.346-4.386c0-1.867-0.452-3.306-1.346-4.31
		c-0.896-1.011-2.008-1.512-3.329-1.512c-1.327,0-2.439,0.501-3.347,1.512C245.939,24.65,245.489,26.1,245.489,27.994
		L245.489,27.994z M281.57,37.491h-5.076v-9.719c0-2.056-0.11-3.385-0.327-3.985c-0.223-0.606-0.574-1.071-1.067-1.409
		c-0.495-0.336-1.088-0.501-1.779-0.501c-0.891,0-1.687,0.238-2.389,0.716c-0.712,0.479-1.193,1.116-1.452,1.898
		c-0.266,0.79-0.396,2.247-0.396,4.379v8.622h-5.076V18.422h4.706v2.798c1.687-2.137,3.804-3.203,6.367-3.203
		c1.123,0,2.154,0.203,3.087,0.601c0.938,0.403,1.643,0.913,2.117,1.531c0.482,0.625,0.815,1.329,1,2.118
		c0.192,0.79,0.285,1.917,0.285,3.387V37.491L281.57,37.491z M290.493,24.301l-4.594-0.809c0.519-1.862,1.414-3.241,2.681-4.133
		c1.265-0.894,3.148-1.342,5.644-1.342c2.267,0,3.957,0.265,5.068,0.797c1.106,0.532,1.891,1.207,2.341,2.027
		c0.452,0.82,0.68,2.321,0.68,4.513l-0.073,5.879c0,1.672,0.079,2.91,0.24,3.704c0.16,0.797,0.464,1.648,0.907,2.554h-5.039
		c-0.129-0.331-0.296-0.82-0.488-1.469c-0.079-0.3-0.143-0.496-0.179-0.589c-0.863,0.846-1.791,1.477-2.777,1.899
		c-0.988,0.422-2.04,0.637-3.156,0.637c-1.97,0-3.526-0.533-4.663-1.598c-1.136-1.059-1.702-2.407-1.702-4.036
		c0-1.071,0.257-2.032,0.777-2.878c0.519-0.838,1.24-1.487,2.179-1.935c0.933-0.446,2.279-0.839,4.039-1.176
		c2.371-0.441,4.02-0.856,4.934-1.236V24.6c0-0.979-0.241-1.677-0.723-2.1c-0.487-0.417-1.4-0.625-2.741-0.625
		c-0.908,0-1.611,0.177-2.118,0.539C291.216,22.77,290.807,23.4,290.493,24.301L290.493,24.301z M297.311,28.379
		c-0.648,0.213-1.68,0.471-3.093,0.771c-1.409,0.3-2.336,0.594-2.769,0.875c-0.659,0.472-0.993,1.059-0.993,1.776
		c0,0.71,0.266,1.317,0.796,1.83c0.532,0.515,1.205,0.772,2.026,0.772c0.914,0,1.791-0.301,2.625-0.895
		c0.611-0.458,1.018-1.011,1.21-1.672c0.129-0.429,0.197-1.25,0.197-2.455V28.379L297.311,28.379z M307.32,37.491V11.184h5.077
		v26.307H307.32z"/>
	<path fill-rule="evenodd" clip-rule="evenodd" fill="#fff" d="M64.937,7.311c13.593,0,24.614,11.021,24.614,24.616
		c0,5.151-1.583,9.935-4.289,13.886c-5.919,8.655-14.273,17.429-20.527,25.937c-5.043-6.825-19.017-22.941-22.017-29.215
		c-1.535-3.212-2.397-6.809-2.397-10.607C40.32,18.331,51.34,7.311,64.937,7.311z"/>
	<circle fill-rule="evenodd" clip-rule="evenodd" fill="#007fff" cx="64.935" cy="31.784" r="14.909"/>
	
		<polyline fill-rule="evenodd" clip-rule="evenodd" fill="none" stroke="#fff" stroke-width="2.6816" stroke-miterlimit="22.9256" points="
		64.479,19.044 64.62,32.44 73.742,26.671 	"/>
	
		<line fill-rule="evenodd" clip-rule="evenodd" fill="none" stroke="#fff" stroke-width="2.6813" stroke-miterlimit="22.9256" x1="52.205" y1="31.599" x2="55.15" y2="31.599"/>
	
		<line fill-rule="evenodd" clip-rule="evenodd" fill="none" stroke="#fff" stroke-width="2.6816" stroke-miterlimit="22.9256" x1="75.211" y1="31.599" x2="78.157" y2="31.599"/>
	
		<line fill-rule="evenodd" clip-rule="evenodd" fill="none" stroke="#fff" stroke-width="2.6813" stroke-miterlimit="22.9256" x1="64.482" y1="44.575" x2="64.482" y2="41.629"/>
	<path fill-rule="evenodd" clip-rule="evenodd" fill="#fff" d="M98.042,51.3c0,0.656,0.131,1.197,0.399,1.625
		c0.268,0.435,0.621,0.788,1.073,1.067c0.451,0.273,0.97,0.508,1.562,0.685c0.594,0.178,1.216,0.343,1.854,0.502
		c0.867,0.212,1.717,0.445,2.556,0.701c0.839,0.257,1.581,0.611,2.236,1.062c0.657,0.45,1.187,1.038,1.592,1.764
		c0.405,0.724,0.604,1.652,0.604,2.793c0,1.159-0.216,2.157-0.656,3.001c-0.439,0.839-1.05,1.529-1.826,2.071
		c-0.775,0.542-1.688,0.941-2.749,1.204c-1.062,0.262-2.219,0.393-3.475,0.393c-0.582,0-1.175-0.033-1.779-0.107
		c-0.61-0.075-1.186-0.171-1.74-0.291c-0.553-0.12-1.05-0.263-1.495-0.417c-0.444-0.153-0.798-0.313-1.055-0.468v-2.481
		c0.399,0.2,0.85,0.377,1.353,0.542c0.501,0.166,1.02,0.308,1.556,0.422c0.537,0.114,1.073,0.205,1.621,0.273
		c0.547,0.063,1.061,0.099,1.539,0.099c0.776,0,1.523-0.069,2.231-0.2c0.708-0.137,1.329-0.359,1.859-0.668
		c0.537-0.313,0.958-0.741,1.272-1.277c0.313-0.542,0.468-1.215,0.468-2.031c0-0.668-0.137-1.22-0.41-1.654
		c-0.268-0.433-0.634-0.792-1.09-1.078c-0.457-0.285-0.981-0.514-1.574-0.695c-0.599-0.177-1.221-0.342-1.877-0.496
		c-0.873-0.205-1.717-0.428-2.544-0.679c-0.833-0.252-1.569-0.6-2.219-1.045c-0.65-0.444-1.176-1.021-1.569-1.722
		c-0.394-0.702-0.594-1.604-0.594-2.692c0-1.136,0.206-2.117,0.622-2.932c0.417-0.822,0.981-1.5,1.69-2.037
		c0.711-0.53,1.528-0.93,2.452-1.186c0.924-0.257,1.911-0.382,2.96-0.382c1.193,0,2.299,0.114,3.332,0.342
		c1.032,0.228,1.974,0.531,2.835,0.896v2.528c-0.924-0.388-1.882-0.708-2.869-0.954c-0.987-0.246-2.043-0.37-3.167-0.382
		c-0.843,0-1.58,0.091-2.207,0.273c-0.622,0.184-1.141,0.445-1.552,0.788c-0.41,0.336-0.719,0.747-0.918,1.232
		C98.144,50.17,98.042,50.706,98.042,51.3L98.042,51.3z M121.208,51.465c0.77,0,1.505,0.081,2.208,0.24
		c0.701,0.16,1.3,0.382,1.802,0.673v2.133c-0.701-0.262-1.346-0.461-1.94-0.593c-0.587-0.131-1.191-0.194-1.802-0.194
		c-0.65,0-1.29,0.108-1.923,0.319c-0.632,0.212-1.204,0.56-1.705,1.044c-0.502,0.485-0.908,1.124-1.209,1.923
		c-0.308,0.793-0.462,1.786-0.462,2.966c0,0.856,0.114,1.649,0.342,2.373c0.229,0.726,0.571,1.353,1.021,1.884
		c0.451,0.523,1.015,0.94,1.695,1.232c0.679,0.296,1.465,0.443,2.356,0.443c0.65,0,1.3-0.068,1.956-0.205
		c0.657-0.137,1.301-0.331,1.923-0.582v2.145c-0.188,0.114-0.438,0.223-0.742,0.337c-0.308,0.109-0.645,0.205-1.015,0.291
		c-0.366,0.081-0.753,0.149-1.169,0.2c-0.412,0.051-0.822,0.073-1.239,0.073c-1.065,0-2.077-0.159-3.028-0.484
		c-0.953-0.319-1.786-0.815-2.499-1.483c-0.713-0.673-1.277-1.517-1.688-2.544c-0.41-1.021-0.617-2.236-0.617-3.64
		c0-1.043,0.109-1.984,0.326-2.823c0.217-0.833,0.514-1.568,0.896-2.201c0.377-0.635,0.815-1.176,1.324-1.621
		c0.508-0.445,1.049-0.81,1.619-1.096c0.577-0.284,1.17-0.491,1.781-0.615C120.032,51.528,120.626,51.465,121.208,51.465
		L121.208,51.465z M132.176,54.055h0.052c0.291-0.364,0.61-0.708,0.969-1.027c0.354-0.319,0.747-0.592,1.187-0.822
		c0.433-0.228,0.901-0.405,1.398-0.542c0.501-0.131,1.043-0.2,1.625-0.2c0.599,0,1.199,0.081,1.803,0.24
		c0.598,0.165,1.157,0.451,1.67,0.861c0.508,0.417,0.93,0.987,1.25,1.722c0.326,0.736,0.485,1.685,0.485,2.841v10.628h-2.601V57.546
		c0-1.277-0.24-2.241-0.725-2.887c-0.484-0.645-1.278-0.969-2.378-0.969c-0.913,0-1.781,0.245-2.601,0.741
		c-0.822,0.496-1.535,1.18-2.134,2.048v11.277h-2.601V43.559h2.601V54.055L132.176,54.055z M159.085,59.833
		c0-0.98-0.121-1.854-0.359-2.618c-0.24-0.764-0.577-1.414-1.004-1.945c-0.433-0.531-0.941-0.929-1.535-1.204
		c-0.593-0.273-1.243-0.41-1.945-0.41c-0.701,0-1.351,0.137-1.944,0.41c-0.594,0.275-1.102,0.673-1.535,1.204
		c-0.428,0.531-0.764,1.182-1.004,1.945c-0.24,0.765-0.359,1.638-0.359,2.618c0,0.97,0.119,1.837,0.359,2.602
		c0.24,0.764,0.577,1.409,1.017,1.935c0.433,0.524,0.946,0.924,1.539,1.197c0.594,0.273,1.244,0.41,1.945,0.41
		c0.703,0,1.346-0.137,1.935-0.41c0.587-0.273,1.095-0.673,1.528-1.197c0.428-0.525,0.764-1.171,1.004-1.935
		C158.965,61.67,159.085,60.803,159.085,59.833L159.085,59.833z M161.79,59.833c0,1.25-0.177,2.386-0.537,3.405
		c-0.354,1.027-0.862,1.905-1.512,2.631c-0.655,0.729-1.442,1.294-2.368,1.7c-0.929,0.398-1.968,0.598-3.114,0.598
		c-1.181,0-2.242-0.199-3.171-0.598c-0.93-0.406-1.723-0.971-2.379-1.7c-0.65-0.726-1.146-1.604-1.494-2.631
		c-0.349-1.02-0.52-2.155-0.52-3.405c0-1.26,0.177-2.4,0.536-3.423c0.354-1.026,0.862-1.904,1.512-2.641
		c0.656-0.736,1.449-1.3,2.378-1.706c0.931-0.399,1.974-0.599,3.12-0.599c1.17,0,2.226,0.2,3.162,0.599
		c0.941,0.405,1.733,0.969,2.378,1.706c0.645,0.736,1.141,1.614,1.488,2.641C161.618,57.433,161.79,58.573,161.79,59.833
		L161.79,59.833z M177.333,59.833c0-0.98-0.121-1.854-0.359-2.618c-0.24-0.764-0.577-1.414-1.004-1.945
		c-0.433-0.531-0.941-0.929-1.535-1.204c-0.593-0.273-1.243-0.41-1.945-0.41c-0.702,0-1.352,0.137-1.944,0.41
		c-0.594,0.275-1.102,0.673-1.535,1.204c-0.427,0.531-0.764,1.182-1.004,1.945c-0.24,0.765-0.359,1.638-0.359,2.618
		c0,0.97,0.119,1.837,0.359,2.602c0.24,0.764,0.577,1.409,1.016,1.935c0.433,0.524,0.946,0.924,1.54,1.197
		c0.594,0.273,1.244,0.41,1.945,0.41c0.703,0,1.346-0.137,1.935-0.41c0.587-0.273,1.096-0.673,1.529-1.197
		c0.427-0.525,0.764-1.171,1.004-1.935C177.213,61.67,177.333,60.803,177.333,59.833L177.333,59.833z M180.038,59.833
		c0,1.25-0.177,2.386-0.536,3.405c-0.354,1.027-0.862,1.905-1.512,2.631c-0.656,0.729-1.443,1.294-2.368,1.7
		c-0.929,0.398-1.968,0.598-3.114,0.598c-1.181,0-2.242-0.199-3.17-0.598c-0.931-0.406-1.723-0.971-2.38-1.7
		c-0.65-0.726-1.146-1.604-1.494-2.631c-0.349-1.02-0.521-2.155-0.521-3.405c0-1.26,0.177-2.4,0.537-3.423
		c0.354-1.026,0.862-1.904,1.512-2.641c0.656-0.736,1.449-1.3,2.378-1.706c0.931-0.399,1.974-0.599,3.12-0.599
		c1.17,0,2.226,0.2,3.161,0.599c0.941,0.405,1.733,0.969,2.378,1.706s1.141,1.614,1.488,2.641
		C179.866,57.433,180.038,58.573,180.038,59.833L180.038,59.833z M184.286,67.757V43.559h2.602v24.198H184.286L184.286,67.757z
		 M192.228,67.757v-15.88h2.601v15.88H192.228L192.228,67.757z M192.159,48.179v-2.875h2.601v2.875H192.159L192.159,48.179z
		 M202.508,54.083h0.046c0.29-0.37,0.609-0.707,0.964-1.027c0.347-0.313,0.741-0.593,1.181-0.833
		c0.434-0.24,0.906-0.428,1.425-0.559c0.52-0.131,1.085-0.2,1.7-0.2c0.726,0,1.404,0.104,2.037,0.303
		c0.64,0.2,1.187,0.524,1.654,0.969c0.468,0.445,0.839,1.027,1.112,1.745c0.274,0.719,0.41,1.597,0.41,2.646v10.628h-2.601V57.546
		c0-1.368-0.263-2.35-0.792-2.955c-0.526-0.599-1.296-0.9-2.312-0.9c-0.89,0-1.751,0.245-2.584,0.741
		c-0.832,0.496-1.551,1.175-2.15,2.042v11.283h-2.601v-15.88h2.007L202.508,54.083L202.508,54.083z M219.825,59.925
		c0,1.249,0.149,2.271,0.45,3.058c0.304,0.793,0.686,1.409,1.153,1.848c0.461,0.439,0.964,0.741,1.511,0.902
		c0.549,0.165,1.067,0.244,1.559,0.244c0.804,0,1.563-0.165,2.265-0.489c0.7-0.326,1.323-0.771,1.859-1.33v-8.306
		c-0.143-0.2-0.348-0.428-0.604-0.679c-0.257-0.257-0.555-0.49-0.896-0.707s-0.73-0.4-1.163-0.553
		c-0.434-0.148-0.913-0.223-1.427-0.223c-0.77,0-1.448,0.152-2.036,0.461c-0.582,0.304-1.073,0.731-1.471,1.278
		c-0.395,0.548-0.696,1.198-0.896,1.962C219.929,58.156,219.825,59.001,219.825,59.925L219.825,59.925z M224.207,51.465
		c0.69,0.012,1.295,0.098,1.809,0.268c0.514,0.167,0.951,0.372,1.323,0.622c0.364,0.251,0.661,0.496,0.878,0.742
		c0.218,0.245,0.365,0.439,0.445,0.582h0.068l0.536-1.802h1.956v16.811c0,1.226-0.199,2.293-0.604,3.199
		c-0.399,0.907-0.964,1.661-1.688,2.266c-0.73,0.598-1.603,1.05-2.623,1.341c-1.021,0.296-2.15,0.443-3.395,0.443
		c-1.05,0-1.986-0.092-2.813-0.273c-0.827-0.183-1.471-0.405-1.938-0.656v-2.185c0.377,0.154,0.747,0.285,1.101,0.389
		c0.359,0.102,0.725,0.188,1.106,0.262c0.377,0.068,0.764,0.126,1.163,0.154c0.395,0.034,0.834,0.052,1.313,0.052
		c1.864,0,3.296-0.435,4.29-1.302c0.992-0.873,1.488-2.196,1.488-3.976v-2.122h-0.052c-0.57,0.622-1.227,1.096-1.985,1.415
		c-0.753,0.313-1.614,0.473-2.583,0.473c-0.445,0-0.925-0.051-1.438-0.147c-0.513-0.104-1.026-0.274-1.539-0.514
		c-0.514-0.24-1.005-0.554-1.478-0.953c-0.468-0.393-0.88-0.89-1.239-1.482c-0.353-0.6-0.644-1.301-0.86-2.117
		c-0.217-0.81-0.326-1.751-0.326-2.816c0-1.484,0.2-2.768,0.604-3.851c0.399-1.09,0.931-1.985,1.592-2.699
		c0.657-0.713,1.409-1.244,2.259-1.596C222.427,51.642,223.299,51.465,224.207,51.465z"/>
	
		<line fill-rule="evenodd" clip-rule="evenodd" fill="none" stroke="#fff" stroke-width="1.7014" stroke-miterlimit="22.9256" x1="235.771" y1="50.395" x2="235.771" y2="74.867"/>
	<path fill-rule="evenodd" clip-rule="evenodd" fill="#fff" d="M248.158,57.009c0.189-0.7,0.424-1.449,0.704-2.249l1.494-4.245
		h2.225v8.875h-1.589v-4.496c0-0.659,0.026-1.425,0.077-2.297h-0.058c-0.072,0.253-0.159,0.537-0.258,0.849
		c-0.1,0.315-0.203,0.626-0.312,0.929l-1.787,5.016h-1.021l-1.787-5.016c-0.108-0.303-0.212-0.613-0.312-0.929
		c-0.099-0.312-0.185-0.595-0.258-0.849h-0.058c0.051,0.82,0.077,1.581,0.077,2.29v4.503h-1.589v-8.875h2.211l1.494,4.225
		c0.25,0.704,0.486,1.461,0.704,2.27H248.158L248.158,57.009z M253.68,52.961h1.643l0.938,2.328c0.354,0.886,0.604,1.541,0.75,1.964
		h0.027c0.108-0.33,0.335-0.946,0.684-1.843l0.972-2.449h1.661l-4.034,9.514h-1.514l1.437-3.443L253.68,52.961L253.68,52.961z
		 M265.768,50.515v7.516h4.048v1.359h-5.637v-8.875H265.768L265.768,50.515z M275.496,56.175c0-0.34-0.04-0.641-0.117-0.901
		c-0.077-0.26-0.184-0.478-0.322-0.654c-0.137-0.177-0.303-0.311-0.496-0.398c-0.195-0.089-0.406-0.132-0.634-0.132
		c-0.223,0-0.431,0.043-0.622,0.132c-0.192,0.088-0.357,0.222-0.495,0.398c-0.136,0.177-0.244,0.395-0.322,0.654
		c-0.077,0.261-0.116,0.562-0.116,0.901s0.039,0.642,0.116,0.902c0.078,0.26,0.187,0.478,0.325,0.651
		c0.141,0.175,0.307,0.307,0.498,0.396c0.189,0.091,0.402,0.137,0.629,0.137c0.228,0,0.438-0.046,0.627-0.137
		c0.19-0.09,0.354-0.222,0.49-0.396c0.139-0.174,0.245-0.392,0.322-0.651C275.456,56.816,275.496,56.515,275.496,56.175
		L275.496,56.175z M277.085,56.175c0,0.506-0.073,0.966-0.221,1.38c-0.146,0.417-0.355,0.772-0.631,1.069
		c-0.273,0.296-0.605,0.525-0.994,0.687c-0.388,0.16-0.82,0.242-1.3,0.242c-0.492,0-0.933-0.082-1.323-0.242
		c-0.392-0.161-0.722-0.391-0.993-0.687c-0.271-0.297-0.479-0.652-0.625-1.069c-0.144-0.414-0.216-0.874-0.216-1.38
		c0-0.505,0.072-0.965,0.221-1.379c0.146-0.417,0.354-0.772,0.631-1.069c0.273-0.297,0.604-0.525,0.993-0.686s0.82-0.242,1.3-0.242
		c0.492,0,0.934,0.082,1.324,0.242s0.722,0.389,0.993,0.686c0.271,0.297,0.479,0.652,0.624,1.069
		C277.012,55.21,277.085,55.67,277.085,56.175L277.085,56.175z M282.955,59.249c-0.194,0.083-0.433,0.153-0.713,0.215
		c-0.28,0.06-0.573,0.089-0.885,0.089c-0.452,0-0.876-0.066-1.267-0.2c-0.393-0.131-0.737-0.332-1.031-0.602
		c-0.293-0.272-0.524-0.612-0.692-1.026c-0.17-0.415-0.254-0.897-0.254-1.45c0-0.618,0.097-1.15,0.291-1.592
		c0.194-0.442,0.448-0.802,0.757-1.078c0.31-0.276,0.655-0.48,1.042-0.612c0.387-0.129,0.766-0.194,1.141-0.194
		c0.281,0,0.55,0.024,0.809,0.077c0.26,0.05,0.494,0.12,0.706,0.208v1.278c-0.19-0.082-0.393-0.147-0.605-0.197
		s-0.443-0.075-0.688-0.075c-0.247,0-0.48,0.039-0.705,0.116c-0.224,0.077-0.422,0.199-0.595,0.366
		c-0.172,0.17-0.309,0.39-0.41,0.666s-0.152,0.609-0.152,0.997c0,0.283,0.04,0.551,0.117,0.799c0.077,0.25,0.189,0.463,0.34,0.64
		c0.147,0.177,0.338,0.319,0.567,0.426c0.231,0.108,0.503,0.163,0.818,0.163c0.28,0,0.534-0.027,0.764-0.082
		c0.228-0.057,0.443-0.124,0.646-0.204V59.249L282.955,59.249z M287.972,58.705h-0.026c-0.087,0.093-0.188,0.188-0.31,0.285
		c-0.121,0.098-0.261,0.191-0.415,0.276c-0.154,0.086-0.326,0.154-0.516,0.206c-0.19,0.053-0.396,0.08-0.616,0.08
		c-0.298,0-0.576-0.048-0.834-0.143c-0.261-0.096-0.481-0.233-0.667-0.413c-0.186-0.179-0.33-0.394-0.437-0.649
		c-0.106-0.254-0.159-0.539-0.159-0.852c0-0.347,0.063-0.655,0.184-0.932c0.123-0.273,0.295-0.505,0.514-0.695
		c0.221-0.19,0.483-0.335,0.79-0.435c0.305-0.1,0.645-0.149,1.016-0.149c0.271,0,0.521,0.018,0.75,0.052
		c0.228,0.036,0.429,0.079,0.601,0.127v-0.258c0-0.149-0.024-0.295-0.075-0.433c-0.048-0.141-0.128-0.264-0.238-0.372
		s-0.254-0.192-0.431-0.258c-0.176-0.063-0.393-0.096-0.646-0.096c-0.309,0-0.62,0.034-0.932,0.104
		c-0.309,0.07-0.646,0.177-1.008,0.317v-1.228c0.315-0.141,0.648-0.25,1.002-0.324c0.355-0.077,0.724-0.116,1.112-0.12
		c0.456,0,0.858,0.056,1.2,0.172c0.342,0.115,0.632,0.274,0.861,0.475c0.231,0.202,0.405,0.439,0.521,0.714
		c0.112,0.274,0.17,0.573,0.17,0.895v2.424c0,0.426,0.004,0.791,0.013,1.096c0.01,0.305,0.018,0.576,0.026,0.816h-1.383
		L287.972,58.705L287.972,58.705z M287.846,56.648c-0.146-0.036-0.313-0.067-0.503-0.097c-0.19-0.03-0.382-0.044-0.574-0.044
		c-0.375,0-0.671,0.077-0.887,0.229c-0.219,0.153-0.327,0.387-0.327,0.702c0,0.145,0.024,0.271,0.075,0.38
		c0.049,0.109,0.115,0.199,0.198,0.27c0.084,0.07,0.184,0.125,0.294,0.161c0.112,0.034,0.231,0.052,0.355,0.052
		c0.154,0,0.302-0.021,0.439-0.063c0.136-0.041,0.265-0.096,0.379-0.159c0.117-0.063,0.221-0.136,0.313-0.215
		c0.093-0.082,0.172-0.158,0.236-0.233V56.648L287.846,56.648z M294.919,59.381c-0.172,0.052-0.377,0.095-0.616,0.126
		c-0.24,0.029-0.463,0.046-0.671,0.046c-0.524,0-0.955-0.089-1.291-0.263c-0.335-0.175-0.571-0.426-0.708-0.752
		c-0.1-0.236-0.15-0.553-0.15-0.956v-3.33h-1.169v-1.291h1.169v-1.794h1.536v1.794h1.811v1.291h-1.811v3.126
		c0,0.247,0.038,0.431,0.11,0.551c0.128,0.203,0.387,0.306,0.769,0.306c0.179,0,0.353-0.014,0.527-0.043
		c0.174-0.03,0.34-0.066,0.494-0.109V59.381L294.919,59.381z M296.148,52.961h1.535v6.429h-1.535V52.961L296.148,52.961z
		 M296.108,49.781h1.615v1.699h-1.615V49.781L296.108,49.781z M303.795,56.175c0-0.34-0.039-0.641-0.116-0.901
		c-0.078-0.26-0.184-0.478-0.322-0.654c-0.138-0.177-0.303-0.311-0.497-0.398c-0.194-0.089-0.406-0.132-0.633-0.132
		c-0.224,0-0.431,0.043-0.623,0.132c-0.192,0.088-0.357,0.222-0.494,0.398s-0.245,0.395-0.322,0.654
		c-0.077,0.261-0.117,0.562-0.117,0.901s0.04,0.642,0.117,0.902c0.077,0.26,0.186,0.478,0.324,0.651
		c0.142,0.175,0.308,0.307,0.499,0.396c0.189,0.091,0.401,0.137,0.629,0.137s0.438-0.046,0.627-0.137
		c0.189-0.09,0.353-0.222,0.49-0.396c0.139-0.174,0.244-0.392,0.322-0.651C303.756,56.816,303.795,56.515,303.795,56.175
		L303.795,56.175z M305.385,56.175c0,0.506-0.073,0.966-0.222,1.38c-0.146,0.417-0.355,0.772-0.631,1.069
		c-0.273,0.296-0.604,0.525-0.993,0.687c-0.389,0.16-0.82,0.242-1.3,0.242c-0.492,0-0.934-0.082-1.324-0.242
		c-0.391-0.161-0.722-0.391-0.993-0.687c-0.271-0.297-0.479-0.652-0.624-1.069c-0.144-0.414-0.217-0.874-0.217-1.38
		c0-0.505,0.073-0.965,0.221-1.379c0.146-0.417,0.355-0.772,0.631-1.069c0.274-0.297,0.605-0.525,0.993-0.686
		c0.389-0.161,0.821-0.242,1.301-0.242c0.492,0,0.934,0.082,1.324,0.242c0.39,0.161,0.722,0.389,0.992,0.686
		c0.272,0.297,0.479,0.652,0.625,1.069C305.312,55.21,305.385,55.67,305.385,56.175L305.385,56.175z M308.143,53.854h0.027
		c0.09-0.134,0.205-0.263,0.342-0.392c0.139-0.129,0.295-0.24,0.472-0.338c0.177-0.097,0.373-0.177,0.585-0.235
		c0.215-0.061,0.441-0.09,0.683-0.09c0.229,0,0.45,0.027,0.664,0.079c0.212,0.055,0.408,0.136,0.585,0.25
		c0.176,0.113,0.333,0.258,0.468,0.437c0.137,0.181,0.242,0.395,0.319,0.642c0.045,0.138,0.073,0.287,0.089,0.447
		c0.016,0.162,0.021,0.35,0.021,0.563v4.175h-1.535v-3.933c0-0.172-0.007-0.319-0.021-0.443c-0.013-0.125-0.035-0.233-0.07-0.327
		c-0.077-0.203-0.194-0.348-0.352-0.437c-0.158-0.089-0.348-0.134-0.57-0.134c-0.299,0-0.583,0.072-0.857,0.218
		c-0.273,0.143-0.514,0.353-0.726,0.627v4.429h-1.536v-6.429h1.271L308.143,53.854L308.143,53.854z M248.158,70.015
		c0.189-0.699,0.424-1.449,0.704-2.249l1.494-4.244h2.225v8.874h-1.589v-4.496c0-0.659,0.026-1.425,0.077-2.297h-0.058
		c-0.072,0.254-0.159,0.537-0.258,0.85c-0.1,0.314-0.203,0.625-0.312,0.929l-1.787,5.015h-1.021l-1.787-5.015
		c-0.108-0.304-0.212-0.614-0.312-0.929c-0.099-0.313-0.185-0.596-0.258-0.85h-0.058c0.051,0.82,0.077,1.581,0.077,2.29v4.503
		h-1.589v-8.874h2.211l1.494,4.224c0.25,0.705,0.486,1.461,0.704,2.27H248.158L248.158,70.015z M253.68,65.968h1.643l0.938,2.328
		c0.354,0.886,0.604,1.54,0.75,1.964h0.027c0.108-0.331,0.335-0.947,0.684-1.844l0.972-2.448h1.661l-4.034,9.513h-1.514l1.437-3.442
		L253.68,65.968L253.68,65.968z M266.822,72.396h-1.589V64.88h-2.794v-1.358h7.171v1.358h-2.788V72.396L266.822,72.396z
		 M270.667,65.968h1.536v6.428h-1.536V65.968L270.667,65.968z M270.627,62.787h1.616v1.699h-1.616V62.787L270.627,62.787z
		 M281.995,68.478c0-0.139-0.005-0.266-0.013-0.386c-0.009-0.12-0.024-0.224-0.045-0.313c-0.048-0.194-0.141-0.351-0.277-0.471
		c-0.14-0.12-0.334-0.182-0.583-0.187c-0.135,0-0.271,0.021-0.415,0.06c-0.141,0.041-0.282,0.097-0.424,0.17
		c-0.139,0.075-0.273,0.163-0.399,0.267c-0.128,0.104-0.242,0.221-0.346,0.35v4.428h-1.536v-3.918c0-0.139-0.005-0.266-0.014-0.386
		s-0.024-0.224-0.044-0.313c-0.049-0.194-0.14-0.351-0.276-0.471c-0.134-0.12-0.331-0.182-0.585-0.187
		c-0.135,0-0.271,0.021-0.415,0.06c-0.141,0.041-0.282,0.097-0.423,0.17c-0.14,0.075-0.274,0.163-0.399,0.267
		c-0.128,0.104-0.243,0.221-0.347,0.35v4.428h-1.536v-6.428h1.271l0.142,0.893h0.026c0.091-0.134,0.206-0.263,0.343-0.393
		c0.139-0.129,0.295-0.24,0.47-0.338c0.175-0.097,0.366-0.176,0.576-0.235c0.209-0.061,0.431-0.09,0.664-0.09
		c0.413,0,0.785,0.095,1.116,0.283c0.329,0.188,0.581,0.479,0.753,0.878h0.026c0.122-0.172,0.256-0.33,0.404-0.471
		c0.15-0.143,0.315-0.263,0.496-0.365c0.182-0.102,0.376-0.181,0.585-0.239c0.21-0.057,0.433-0.086,0.671-0.086
		c0.448,0.004,0.826,0.1,1.128,0.287c0.305,0.188,0.539,0.446,0.704,0.774c0.042,0.084,0.079,0.177,0.108,0.274
		c0.03,0.1,0.055,0.213,0.075,0.335c0.02,0.125,0.032,0.263,0.042,0.413c0.009,0.151,0.013,0.323,0.013,0.519v3.988h-1.536V68.478
		L281.995,68.478z M288.438,71.295c0.298,0,0.608-0.029,0.931-0.091c0.325-0.061,0.651-0.149,0.982-0.263v1.248
		c-0.196,0.088-0.501,0.172-0.911,0.251c-0.408,0.08-0.835,0.118-1.273,0.118c-0.443,0-0.865-0.059-1.265-0.177
		c-0.397-0.115-0.746-0.306-1.046-0.566c-0.298-0.26-0.534-0.6-0.711-1.015c-0.174-0.416-0.263-0.919-0.263-1.513
		c0-0.585,0.082-1.094,0.247-1.533c0.163-0.438,0.385-0.8,0.66-1.088c0.276-0.287,0.592-0.503,0.949-0.647
		c0.355-0.143,0.724-0.215,1.103-0.215c0.398,0,0.764,0.061,1.1,0.185c0.333,0.123,0.625,0.317,0.867,0.583
		c0.245,0.265,0.436,0.604,0.569,1.021c0.137,0.419,0.206,0.91,0.206,1.481c-0.005,0.22-0.012,0.407-0.021,0.562h-4.109
		c0.022,0.299,0.086,0.553,0.194,0.766c0.108,0.211,0.247,0.383,0.424,0.514c0.174,0.132,0.378,0.229,0.609,0.288
		C287.915,71.266,288.166,71.295,288.438,71.295L288.438,71.295z M287.823,67.027c-0.193,0-0.366,0.036-0.518,0.108
		c-0.15,0.075-0.28,0.173-0.391,0.3c-0.11,0.126-0.197,0.273-0.261,0.441c-0.066,0.167-0.108,0.346-0.13,0.537h2.462
		c0-0.191-0.023-0.37-0.074-0.537c-0.049-0.168-0.121-0.315-0.219-0.441c-0.098-0.127-0.219-0.225-0.362-0.3
		C288.186,67.063,288.018,67.027,287.823,67.027z"/>
	<path fill-rule="evenodd" clip-rule="evenodd" fill="#fff" d="M95.163,101.032V87.121h3.682c0.327,0,0.657,0.011,0.994,0.032
		s0.665,0.05,0.984,0.092c0.319,0.043,0.624,0.093,0.923,0.153c0.298,0.057,0.575,0.127,0.824,0.213
		c0.742,0.234,1.396,0.554,1.967,0.955c0.568,0.401,1.043,0.877,1.427,1.424c0.387,0.546,0.678,1.161,0.877,1.835
		c0.195,0.675,0.294,1.41,0.294,2.198c0,0.749-0.082,1.452-0.249,2.105c-0.167,0.657-0.419,1.253-0.76,1.793
		c-0.341,0.543-0.767,1.02-1.285,1.431c-0.519,0.412-1.129,0.749-1.836,1.016c-0.589,0.221-1.26,0.387-2.006,0.497
		c-0.75,0.11-1.595,0.167-2.528,0.167H95.163L95.163,101.032z M98.771,98.902c1.487,0,2.652-0.206,3.49-0.614
		c0.742-0.366,1.303-0.902,1.682-1.602c0.38-0.699,0.572-1.594,0.572-2.685c0-0.567-0.064-1.079-0.188-1.537
		s-0.306-0.866-0.54-1.222c-0.234-0.358-0.522-0.663-0.856-0.92c-0.337-0.259-0.717-0.468-1.14-0.635
		c-0.394-0.152-0.834-0.263-1.317-0.334c-0.486-0.067-1.029-0.103-1.633-0.103h-1.122v9.65H98.771L98.771,98.902z M114.229,101.032
		V87.121h2.556v13.911H114.229L114.229,101.032z M132.313,95.707h-3.122v-2.131h5.678v7.023c-0.209,0.078-0.473,0.155-0.795,0.241
		c-0.323,0.081-0.682,0.156-1.083,0.224c-0.397,0.067-0.81,0.12-1.232,0.16c-0.423,0.042-0.842,0.063-1.257,0.063
		c-1.25,0-2.34-0.167-3.27-0.504c-0.934-0.338-1.708-0.81-2.329-1.421c-0.622-0.61-1.086-1.339-1.396-2.18
		c-0.309-0.846-0.461-1.775-0.461-2.794c0-0.721,0.082-1.41,0.245-2.067c0.163-0.656,0.405-1.264,0.72-1.821
		c0.316-0.557,0.704-1.062,1.154-1.513c0.451-0.45,0.969-0.838,1.548-1.157c0.579-0.316,1.211-0.562,1.903-0.73
		c0.688-0.171,1.431-0.257,2.219-0.257c0.7,0,1.367,0.051,1.999,0.149c0.628,0.1,1.147,0.224,1.548,0.366v2.147
		c-0.54-0.166-1.086-0.295-1.637-0.379c-0.55-0.09-1.108-0.132-1.668-0.132c-0.756,0-1.463,0.113-2.123,0.337
		c-0.661,0.228-1.229,0.562-1.712,1.002c-0.483,0.44-0.863,0.983-1.14,1.629c-0.277,0.644-0.416,1.393-0.416,2.237
		c0.007,1.644,0.437,2.88,1.285,3.703c0.853,0.82,2.056,1.232,3.619,1.232c0.291,0,0.593-0.015,0.901-0.047
		c0.313-0.032,0.586-0.071,0.821-0.12V95.707L132.313,95.707z M142.375,101.032V87.121h2.557v13.911H142.375L142.375,101.032z
		 M156.894,101.032h-2.557v-11.78h-4.495v-2.131h11.536v2.131h-4.484V101.032L156.894,101.032z M174.771,97.496h-5.269l-1.349,3.536
		h-2.716l5.525-13.911h2.329l5.524,13.911h-2.694L174.771,97.496L174.771,97.496z M172.115,90.466
		c-0.497,1.448-0.938,2.663-1.321,3.639l-0.472,1.261h3.629l-0.473-1.257c-0.383-0.982-0.824-2.197-1.32-3.643H172.115
		L172.115,90.466z M187.734,87.121v11.781h6.512v2.13h-9.068V87.121H187.734L187.734,87.121z M202.491,90.789
		c0,0.408,0.082,0.745,0.249,1.012c0.167,0.27,0.387,0.49,0.667,0.664c0.28,0.171,0.604,0.316,0.973,0.426
		c0.369,0.11,0.757,0.213,1.154,0.313c0.539,0.132,1.068,0.277,1.591,0.438c0.521,0.159,0.983,0.38,1.392,0.659
		c0.408,0.281,0.738,0.646,0.99,1.098c0.253,0.451,0.377,1.029,0.377,1.74c0,0.721-0.135,1.342-0.408,1.867
		c-0.273,0.522-0.653,0.951-1.137,1.289c-0.482,0.337-1.051,0.586-1.711,0.749s-1.381,0.245-2.163,0.245
		c-0.361,0-0.73-0.021-1.107-0.067c-0.38-0.046-0.738-0.106-1.083-0.181c-0.344-0.075-0.653-0.164-0.931-0.26
		c-0.276-0.096-0.496-0.195-0.656-0.291v-1.545c0.249,0.124,0.529,0.234,0.842,0.338c0.313,0.103,0.636,0.191,0.969,0.263
		c0.334,0.071,0.668,0.128,1.009,0.17c0.341,0.039,0.66,0.061,0.958,0.061c0.483,0,0.948-0.043,1.389-0.124
		c0.44-0.085,0.828-0.225,1.157-0.416c0.335-0.195,0.597-0.461,0.792-0.795c0.196-0.337,0.292-0.756,0.292-1.265
		c0-0.415-0.086-0.759-0.256-1.029c-0.167-0.27-0.395-0.493-0.678-0.671c-0.285-0.177-0.611-0.319-0.98-0.433
		c-0.373-0.11-0.76-0.214-1.168-0.309c-0.544-0.129-1.069-0.267-1.584-0.424c-0.519-0.155-0.976-0.372-1.381-0.649
		c-0.405-0.276-0.731-0.635-0.977-1.072c-0.245-0.437-0.369-0.997-0.369-1.676c0-0.707,0.128-1.317,0.387-1.825
		c0.26-0.511,0.61-0.934,1.051-1.268c0.443-0.33,0.952-0.579,1.526-0.738c0.575-0.16,1.189-0.238,1.844-0.238
		c0.742,0,1.431,0.071,2.073,0.213c0.643,0.143,1.229,0.331,1.765,0.558v1.573c-0.575-0.241-1.172-0.439-1.786-0.593
		c-0.614-0.152-1.271-0.231-1.971-0.238c-0.525,0-0.983,0.057-1.374,0.171c-0.387,0.113-0.71,0.276-0.965,0.49
		c-0.256,0.209-0.448,0.465-0.572,0.767S202.491,90.42,202.491,90.789L202.491,90.789z M219.58,88.356
		c-0.781,0-1.51,0.124-2.188,0.37c-0.678,0.244-1.268,0.614-1.769,1.1c-0.496,0.49-0.891,1.098-1.179,1.822
		c-0.287,0.725-0.433,1.569-0.433,2.531c0,0.959,0.135,1.786,0.401,2.492c0.266,0.704,0.646,1.286,1.136,1.747
		c0.493,0.462,1.083,0.803,1.775,1.022c0.692,0.225,1.463,0.334,2.312,0.334c0.234,0,0.479-0.011,0.738-0.035
		c0.26-0.021,0.522-0.058,0.785-0.1c0.263-0.043,0.519-0.093,0.771-0.148c0.248-0.058,0.473-0.118,0.668-0.186v1.484
		c-0.409,0.159-0.885,0.28-1.424,0.369c-0.544,0.085-1.099,0.128-1.666,0.128c-1.157,0-2.188-0.159-3.082-0.482
		s-1.644-0.789-2.251-1.393s-1.064-1.339-1.378-2.208c-0.312-0.873-0.469-1.861-0.469-2.961c0-1.083,0.164-2.077,0.493-2.986
		c0.331-0.909,0.807-1.69,1.429-2.344c0.621-0.65,1.373-1.161,2.258-1.523c0.888-0.365,1.882-0.547,2.982-0.547
		c0.291,0,0.582,0.012,0.866,0.036s0.558,0.061,0.817,0.103c0.259,0.047,0.5,0.1,0.724,0.16c0.221,0.063,0.412,0.127,0.571,0.195
		v1.487c-0.422-0.132-0.884-0.245-1.381-0.333C220.588,88.403,220.087,88.356,219.58,88.356L219.58,88.356z M227.057,93.15h7.265
		v-6.029h1.704v13.911h-1.704v-6.348h-7.265v6.348h-1.704V87.121h1.704V93.15L227.057,93.15z M250.288,94.076
		c0-0.937-0.124-1.761-0.369-2.474c-0.245-0.714-0.582-1.311-1.012-1.79c-0.434-0.479-0.941-0.842-1.527-1.086
		c-0.582-0.246-1.21-0.37-1.885-0.37c-0.671,0-1.303,0.124-1.885,0.37c-0.587,0.244-1.094,0.606-1.527,1.086
		c-0.43,0.479-0.768,1.076-1.013,1.79c-0.244,0.713-0.368,1.537-0.368,2.474c0,0.938,0.124,1.758,0.372,2.472
		c0.249,0.71,0.59,1.303,1.019,1.782c0.435,0.479,0.941,0.838,1.527,1.08c0.583,0.245,1.214,0.365,1.896,0.365
		c0.671,0,1.3-0.12,1.874-0.365c0.579-0.242,1.083-0.601,1.517-1.08c0.43-0.479,0.767-1.072,1.012-1.782
		C250.164,95.834,250.288,95.014,250.288,94.076L250.288,94.076z M251.517,96.98c-0.302,0.881-0.734,1.642-1.299,2.277
		c-0.565,0.639-1.243,1.136-2.035,1.494c-0.795,0.358-1.683,0.536-2.666,0.536c-1.02,0-1.928-0.178-2.734-0.536
		c-0.803-0.358-1.483-0.855-2.042-1.494c-0.557-0.636-0.983-1.396-1.278-2.277c-0.294-0.883-0.443-1.85-0.443-2.904
		c0-1.061,0.153-2.034,0.459-2.918c0.305-0.884,0.738-1.647,1.299-2.286c0.562-0.636,1.239-1.133,2.038-1.492
		c0.796-0.358,1.689-0.536,2.681-0.536c1.012,0,1.917,0.178,2.716,0.536c0.803,0.359,1.48,0.856,2.039,1.492
		c0.557,0.639,0.982,1.402,1.277,2.286C252.123,92.945,252.126,95.197,251.517,96.98L251.517,96.98z M265.808,94.076
		c0-0.937-0.124-1.761-0.369-2.474c-0.245-0.714-0.582-1.311-1.012-1.79c-0.434-0.479-0.941-0.842-1.527-1.086
		c-0.582-0.246-1.21-0.37-1.885-0.37c-0.672,0-1.304,0.124-1.886,0.37c-0.586,0.244-1.093,0.606-1.526,1.086
		c-0.43,0.479-0.768,1.076-1.012,1.79c-0.246,0.713-0.37,1.537-0.37,2.474c0,0.938,0.124,1.758,0.373,2.472
		c0.249,0.71,0.59,1.303,1.02,1.782c0.434,0.479,0.94,0.838,1.527,1.08c0.581,0.245,1.213,0.365,1.896,0.365
		c0.671,0,1.3-0.12,1.874-0.365c0.579-0.242,1.083-0.601,1.517-1.08c0.43-0.479,0.767-1.072,1.012-1.782
		C265.684,95.834,265.808,95.014,265.808,94.076L265.808,94.076z M267.491,94.076c0,1.055-0.153,2.021-0.455,2.904
		c-0.302,0.881-0.734,1.642-1.3,2.277c-0.564,0.639-1.242,1.136-2.034,1.494c-0.795,0.358-1.683,0.536-2.666,0.536
		c-1.02,0-1.929-0.178-2.734-0.536c-0.803-0.358-1.484-0.855-2.042-1.494c-0.557-0.636-0.983-1.396-1.278-2.277
		c-0.295-0.883-0.443-1.85-0.443-2.904c0-1.061,0.153-2.034,0.458-2.918s0.739-1.647,1.3-2.286c0.561-0.636,1.239-1.133,2.038-1.492
		c0.795-0.358,1.689-0.536,2.681-0.536c1.012,0,1.917,0.178,2.716,0.536c0.803,0.359,1.48,0.856,2.038,1.492
		c0.558,0.639,0.983,1.402,1.278,2.286S267.491,93.016,267.491,94.076L267.491,94.076z M272.272,87.121v12.377h6.793v1.534h-8.496
		V87.121H272.272L272.272,87.121z M281.614,101.032V87.121h1.704v13.911H281.614L281.614,101.032z M293.949,94.876
		c0.852,1.229,1.694,2.489,2.528,3.785h0.061c-0.09-1.35-0.135-2.731-0.135-4.137v-7.403h1.715v13.911h-1.705l-5.453-7.755
		c-0.941-1.353-1.783-2.612-2.521-3.785h-0.063c0.089,1.269,0.135,2.749,0.135,4.438v7.102h-1.704V87.121h1.683L293.949,94.876
		L293.949,94.876z M310.694,95.408h-3.175v-1.533h4.878v6.728c-0.145,0.075-0.358,0.152-0.639,0.234
		c-0.28,0.078-0.6,0.153-0.962,0.224c-0.359,0.068-0.745,0.124-1.158,0.164c-0.415,0.042-0.82,0.063-1.225,0.063
		c-1.189,0-2.244-0.163-3.152-0.49c-0.913-0.326-1.676-0.788-2.295-1.385c-0.617-0.597-1.082-1.32-1.402-2.173
		c-0.319-0.852-0.479-1.804-0.479-2.851c0-1.14,0.174-2.173,0.522-3.104c0.351-0.927,0.854-1.723,1.519-2.383
		c0.664-0.656,1.463-1.164,2.404-1.523c0.938-0.358,1.974-0.536,3.103-0.536c0.306,0,0.611,0.012,0.917,0.036
		s0.596,0.061,0.873,0.103c0.276,0.047,0.536,0.1,0.771,0.16c0.234,0.063,0.434,0.127,0.593,0.195v1.487
		c-0.415-0.132-0.895-0.245-1.435-0.333c-0.543-0.089-1.083-0.136-1.622-0.136c-0.792,0-1.545,0.121-2.262,0.358
		c-0.722,0.238-1.354,0.601-1.899,1.087c-0.547,0.486-0.983,1.094-1.311,1.825s-0.49,1.591-0.49,2.574
		c0,0.963,0.135,1.796,0.405,2.496c0.27,0.699,0.653,1.277,1.146,1.736c0.497,0.458,1.098,0.795,1.801,1.015
		c0.706,0.218,1.49,0.327,2.354,0.327c0.397,0,0.792-0.021,1.182-0.063c0.391-0.039,0.735-0.101,1.038-0.175V95.408z"/>
	
		<line fill-rule="evenodd" clip-rule="evenodd" fill="none" stroke="#fff" stroke-width="0.216" stroke-miterlimit="22.9256" x1="95.154" y1="80.435" x2="312.398" y2="80.435"/>
	<path fill-rule="evenodd" clip-rule="evenodd" fill="#fff" d="M321.972,5.752c3.506,0,6.349,2.843,6.349,6.35
		c0,3.507-2.843,6.35-6.349,6.35c-3.505,0-6.348-2.843-6.348-6.35C315.624,8.595,318.467,5.752,321.972,5.752L321.972,5.752z
		 M321.972,6.658c-3.003,0-5.443,2.438-5.443,5.444c0,3.005,2.44,5.443,5.443,5.443c3.004,0,5.444-2.438,5.444-5.443
		C327.416,9.096,324.976,6.658,321.972,6.658z"/>
	<text transform="matrix(1 0 0 1 319.1445 15.0498)" fill="#fff" font-family="'ArialMT'" font-size="8.0751">R</text>
</g>
</svg>
